solid TronXY_X1_Control_Box_and_base_V2
facet normal -0.707106781186544 0.707106781186551 0.0
outer loop
vertex 130.078859760457 -48.0638185670423 4.99999999999997
vertex 133.185461478255 -45.680039228074 4.93494134445882e-015
vertex 130.078859760457 -48.0638185670423 4.93494134445882e-015
endloop
endfacet
facet normal -0.500000000000005 0.866025403784436 0.0
outer loop
vertex 133.185461478255 -45.680039228074 4.93494134445882e-015
vertex 130.078859760457 -48.0638185670423 4.99999999999997
vertex 133.185461478255 -45.680039228074 4.99999999999997
endloop
endfacet
facet normal -0.86602540378443 0.500000000000014 0.0
outer loop
vertex 127.695080421488 -51.1704202848406 4.99999999999997
vertex 126.196574083919 -54.7881346083028 4.93494134445882e-015
vertex 126.196574083919 -54.7881346083028 4.99999999999997
endloop
endfacet
facet normal -0.965925826289067 0.258819045102527 0.0
outer loop
vertex 126.196574083919 -54.7881346083028 4.93494134445882e-015
vertex 127.695080421488 -51.1704202848406 4.99999999999997
vertex 127.695080421488 -51.1704202848406 4.93494134445882e-015
endloop
endfacet
facet normal -0.38268343236509 -0.923879532511287 0.0
outer loop
vertex 135.685461478255 -72.69633524754 4.99999999999997
vertex 133.185461478255 -71.6608013416072 4.93494134445882e-015
vertex 135.685461478255 -72.69633524754 4.93494134445882e-015
endloop
endfacet
facet normal -0.499999999999995 -0.866025403784441 0.0
outer loop
vertex 133.185461478255 -71.6608013416072 4.93494134445882e-015
vertex 135.685461478255 -72.69633524754 4.99999999999997
vertex 133.185461478255 -71.6608013416072 4.99999999999997
endloop
endfacet
facet normal 1.0 4.44550567992898e-010 -1.92909623633375e-010
outer loop
vertex 155.185461477226 -83.6704202848382 3.04344882628982e-012
vertex 155.185461482678 -93.5704202857524 4.99905288914259
vertex 155.185461480749 -93.5704202870625 -2.02420052755761e-011
endloop
endfacet
facet normal 1.0 4.44550567992898e-010 -1.92909623633375e-010
outer loop
vertex 155.185461482678 -93.5704202857524 4.99905288914259
vertex 155.185461477226 -83.6704202848382 3.04344882628982e-012
vertex 155.185461477226 -83.6704202848358 4.99973090757981
endloop
endfacet
facet normal 9.75927946804913e-007 -3.38484385637817e-006 0.999999999993795
outer loop
vertex 62.4965740839187 -62.5527059613819 4.99999999999997
vertex 62.4965740839187 -54.7881346083064 4.99999999999997
vertex 61.9854614782547 -58.6704202848441 4.99999999999997
endloop
endfacet
facet normal 9.75927946804913e-007 -3.38484385637817e-006 0.999999999993795
outer loop
vertex 62.4965740839187 -54.7881346083064 4.99999999999997
vertex 62.4965740839187 -62.5527059613819 4.99999999999997
vertex 63.9950804214881 -66.1704202848441 4.99999999999997
endloop
endfacet
facet normal 9.75927946804913e-007 -3.38484385637817e-006 0.999999999993795
outer loop
vertex 62.4965740839187 -54.7881346083064 4.99999999999997
vertex 63.9950804214881 -66.1704202848441 4.99999999999997
vertex 63.9950804214881 -51.1704202848442 4.99999999999997
endloop
endfacet
facet normal 9.75927946804913e-007 -3.38484385637817e-006 0.999999999993795
outer loop
vertex 63.9950804214881 -51.1704202848442 4.99999999999997
vertex 63.9950804214881 -66.1704202848441 4.99999999999997
vertex 66.3788597604565 -69.2770220026424 4.99999999999997
endloop
endfacet
facet normal 9.75927946804913e-007 -3.38484385637817e-006 0.999999999993795
outer loop
vertex 63.9950804214881 -51.1704202848442 4.99999999999997
vertex 66.3788597604565 -69.2770220026424 4.99999999999997
vertex 66.3788597604565 -48.0638185670459 4.99999999999997
endloop
endfacet
facet normal 9.75927946804913e-007 -3.38484385637817e-006 0.999999999993795
outer loop
vertex 66.3788597604565 -48.0638185670459 4.99999999999997
vertex 66.3788597604565 -69.2770220026424 4.99999999999997
vertex 69.4854614782546 -71.6608013416108 4.99999999999997
endloop
endfacet
facet normal 9.75927946804913e-007 -3.38484385637817e-006 0.999999999993795
outer loop
vertex 66.3788597604565 -48.0638185670459 4.99999999999997
vertex 69.4854614782546 -71.6608013416108 4.99999999999997
vertex 69.4854614782546 -45.6800392280776 4.99999999999997
endloop
endfacet
facet normal 9.75927946804913e-007 -3.38484385637817e-006 0.999999999993795
outer loop
vertex 69.4854614782546 -45.6800392280776 4.99999999999997
vertex 69.4854614782546 -71.6608013416108 4.99999999999997
vertex 71.9854614782547 -72.6963352475435 4.99999999999997
endloop
endfacet
facet normal 9.75927946804913e-007 -3.38484385637817e-006 0.999999999993795
outer loop
vertex 69.4854614782546 -45.6800392280776 4.99999999999997
vertex 71.9854614782547 -72.6963352475435 4.99999999999997
vertex 73.1031758017168 -44.1815328905081 4.99999999999997
endloop
endfacet
facet normal 9.75927946804913e-007 -3.38484385637817e-006 0.999999999993795
outer loop
vertex 126.196574083919 -62.5527059613784 4.99999999999997
vertex 126.196574083919 -54.7881346083028 4.99999999999997
vertex 125.685461478255 -58.6704202848406 4.99999999999997
endloop
endfacet
facet normal 9.75927946804913e-007 -3.38484385637817e-006 0.999999999993795
outer loop
vertex 126.196574083919 -54.7881346083028 4.99999999999997
vertex 126.196574083919 -62.5527059613784 4.99999999999997
vertex 127.695080421488 -66.1704202848406 4.99999999999997
endloop
endfacet
facet normal 9.75927946804913e-007 -3.38484385637817e-006 0.999999999993795
outer loop
vertex 126.196574083919 -54.7881346083028 4.99999999999997
vertex 127.695080421488 -66.1704202848406 4.99999999999997
vertex 127.695080421488 -51.1704202848406 4.99999999999997
endloop
endfacet
facet normal 9.75927946804913e-007 -3.38484385637817e-006 0.999999999993795
outer loop
vertex 127.695080421488 -51.1704202848406 4.99999999999997
vertex 127.695080421488 -66.1704202848406 4.99999999999997
vertex 130.078859760456 -69.2770220026389 4.99999999999997
endloop
endfacet
facet normal 9.75927946804913e-007 -3.38484385637817e-006 0.999999999993795
outer loop
vertex 127.695080421488 -51.1704202848406 4.99999999999997
vertex 130.078859760456 -69.2770220026389 4.99999999999997
vertex 130.078859760457 -48.0638185670423 4.99999999999997
endloop
endfacet
facet normal 9.75927946804913e-007 -3.38484385637817e-006 0.999999999993795
outer loop
vertex 130.078859760457 -48.0638185670423 4.99999999999997
vertex 130.078859760456 -69.2770220026389 4.99999999999997
vertex 133.185461478255 -71.6608013416072 4.99999999999997
endloop
endfacet
facet normal 9.75927946804913e-007 -3.38484385637817e-006 0.999999999993795
outer loop
vertex 130.078859760457 -48.0638185670423 4.99999999999997
vertex 133.185461478255 -71.6608013416072 4.99999999999997
vertex 133.185461478255 -45.680039228074 4.99999999999997
endloop
endfacet
facet normal 9.75927946804913e-007 -3.38484385637817e-006 0.999999999993795
outer loop
vertex 133.185461478255 -45.680039228074 4.99999999999997
vertex 133.185461478255 -71.6608013416072 4.99999999999997
vertex 135.685461478255 -72.69633524754 4.99999999999997
endloop
endfacet
facet normal 9.75927946804913e-007 -3.38484385637817e-006 0.999999999993795
outer loop
vertex 133.185461478255 -45.680039228074 4.99999999999997
vertex 135.685461478255 -72.69633524754 4.99999999999997
vertex 136.803175801717 -44.1815328905046 4.99999999999997
endloop
endfacet
facet normal 9.75927946804913e-007 -3.38484385637817e-006 0.999999999993795
outer loop
vertex 155.185461474839 -146.970420285014 4.99916902553382
vertex 15.2854614782546 -93.6704202848881 4.99999999999997
vertex 15.2854614782239 -146.97042028499 4.99999999999997
endloop
endfacet
facet normal 9.75927946804913e-007 -3.38484385637817e-006 0.999999999993795
outer loop
vertex 15.2854614782546 -93.6704202848881 4.99999999999997
vertex 155.185461474839 -146.970420285014 4.99916902553382
vertex 24.9854614782547 -93.670420284888 4.99999999999997
endloop
endfacet
facet normal 9.75927946804913e-007 -3.38484385637817e-006 0.999999999993795
outer loop
vertex 24.9854614782547 -93.670420284888 4.99999999999997
vertex 155.185461474839 -146.970420285014 4.99916902553382
vertex 24.9854614782547 -83.6704202848881 4.99999999999997
endloop
endfacet
facet normal 9.75927946804913e-007 -3.38484385637817e-006 0.999999999993795
outer loop
vertex 24.9854614782547 -83.6704202848881 4.99999999999997
vertex 155.185461474839 -146.970420285014 4.99916902553382
vertex 71.9854614782547 -83.6704202848443 4.99999999999997
endloop
endfacet
facet normal 9.75927946804913e-007 -3.38484385637817e-006 0.999999999993795
outer loop
vertex 71.9854614782547 -83.6704202848443 4.99999999999997
vertex 155.185461474839 -146.970420285014 4.99916902553382
vertex 81.9854614782548 -83.6704202848443 4.99999999999997
endloop
endfacet
facet normal 9.75927946804913e-007 -3.38484385637817e-006 0.999999999993795
outer loop
vertex 71.9854614782547 -83.6704202848443 4.99999999999997
vertex 81.9854614782548 -83.6704202848443 4.99999999999997
vertex 71.9854614782547 -72.6963352475435 4.99999999999997
endloop
endfacet
facet normal 9.75927946804913e-007 -3.38484385637817e-006 0.999999999993795
outer loop
vertex 71.9854614782547 -72.6963352475435 4.99999999999997
vertex 81.9854614782548 -83.6704202848443 4.99999999999997
vertex 73.1031758017168 -44.1815328905081 4.99999999999997
endloop
endfacet
facet normal 9.75927946804913e-007 -3.38484385637817e-006 0.999999999993795
outer loop
vertex 73.1031758017168 -44.1815328905081 4.99999999999997
vertex 81.9854614782548 -83.6704202848443 4.99999999999997
vertex 76.9854614782547 -43.6704202848442 4.99999999999997
endloop
endfacet
facet normal 9.75927946804913e-007 -3.38484385637817e-006 0.999999999993795
outer loop
vertex 76.9854614782547 -43.6704202848442 4.99999999999997
vertex 81.9854614782548 -83.6704202848443 4.99999999999997
vertex 80.8677471547925 -44.1815328905081 4.99999999999997
endloop
endfacet
facet normal 9.75927946804913e-007 -3.38484385637817e-006 0.999999999993795
outer loop
vertex 81.9854614782548 -83.6704202848443 4.99999999999997
vertex 155.185461474839 -146.970420285014 4.99916902553382
vertex 135.685461478255 -83.6704202848406 4.99999999999997
endloop
endfacet
facet normal 9.75927946804913e-007 -3.38484385637817e-006 0.999999999993795
outer loop
vertex 135.685461478255 -83.6704202848406 4.99999999999997
vertex 155.185461474839 -146.970420285014 4.99916902553382
vertex 135.685461478255 -72.69633524754 4.99999999999997
endloop
endfacet
facet normal 9.75927946804913e-007 -3.38484385637817e-006 0.999999999993795
outer loop
vertex 135.685461478255 -72.69633524754 4.99999999999997
vertex 155.185461474839 -146.970420285014 4.99916902553382
vertex 136.803175801717 -44.1815328905046 4.99999999999997
endloop
endfacet
facet normal 9.75927946804913e-007 -3.38484385637817e-006 0.999999999993795
outer loop
vertex 136.803175801717 -44.1815328905046 4.99999999999997
vertex 155.185461474839 -146.970420285014 4.99916902553382
vertex 145.685461478255 -83.6704202848406 4.99999999999997
endloop
endfacet
facet normal 9.75927946804913e-007 -3.38484385637817e-006 0.999999999993795
outer loop
vertex 136.803175801717 -44.1815328905046 4.99999999999997
vertex 145.685461478255 -83.6704202848406 4.99999999999997
vertex 140.685461478255 -43.6704202848406 4.99999999999997
endloop
endfacet
facet normal 9.75927946804913e-007 -3.38484385637817e-006 0.999999999993795
outer loop
vertex 140.685461478255 -43.6704202848406 4.99999999999997
vertex 145.685461478255 -83.6704202848406 4.99999999999997
vertex 144.567747154793 -44.1815328905046 4.99999999999997
endloop
endfacet
facet normal 9.75927946804913e-007 -3.38484385637817e-006 0.999999999993795
outer loop
vertex 145.685461478255 -83.6704202848406 4.99999999999997
vertex 155.185461474839 -146.970420285014 4.99916902553382
vertex 149.985461479511 -98.7704202846608 4.99959776117873
endloop
endfacet
facet normal 9.75927946804913e-007 -3.38484385637817e-006 0.999999999993795
outer loop
vertex 149.985461479511 -98.7704202846608 4.99959776117873
vertex 155.185461474839 -146.970420285014 4.99916902553382
vertex 155.185461479511 -98.7704202868631 4.99959776017557
endloop
endfacet
facet normal 9.75927946804913e-007 -3.38484385637817e-006 0.999999999993795
outer loop
vertex 145.685461478255 -83.6704202848406 4.99999999999997
vertex 149.985461482678 -93.5704202835502 4.99905289014575
vertex 155.185461477226 -83.6704202848358 4.99973090757981
endloop
endfacet
facet normal 9.75927946804913e-007 -3.38484385637817e-006 0.999999999993795
outer loop
vertex 149.985461482678 -93.5704202835502 4.99905289014575
vertex 145.685461478255 -83.6704202848406 4.99999999999997
vertex 149.985461479511 -98.7704202846608 4.99959776117873
endloop
endfacet
facet normal 9.75927946804913e-007 -3.38484385637817e-006 0.999999999993795
outer loop
vertex 155.185461477226 -83.6704202848358 4.99973090757981
vertex 149.985461482678 -93.5704202835502 4.99905289014575
vertex 155.185461482678 -93.5704202857524 4.99905288914259
endloop
endfacet
facet normal 9.75927946804913e-007 -3.38484385637817e-006 0.999999999993795
outer loop
vertex 144.567747154793 -44.1815328905046 4.99999999999997
vertex 145.685461478255 -72.69633524754 4.99999999999997
vertex 148.185461478255 -45.6800392280741 4.99999999999997
endloop
endfacet
facet normal 9.75927946804913e-007 -3.38484385637817e-006 0.999999999993795
outer loop
vertex 145.685461478255 -72.69633524754 4.99999999999997
vertex 144.567747154793 -44.1815328905046 4.99999999999997
vertex 145.685461478255 -83.6704202848406 4.99999999999997
endloop
endfacet
facet normal 9.75927946804913e-007 -3.38484385637817e-006 0.999999999993795
outer loop
vertex 148.185461478255 -45.6800392280741 4.99999999999997
vertex 145.685461478255 -72.69633524754 4.99999999999997
vertex 148.185461478255 -71.6608013416072 4.99999999999997
endloop
endfacet
facet normal 9.75927946804913e-007 -3.38484385637817e-006 0.999999999993795
outer loop
vertex 148.185461478255 -45.6800392280741 4.99999999999997
vertex 148.185461478255 -71.6608013416072 4.99999999999997
vertex 151.292063196053 -69.2770220026389 4.99999999999997
endloop
endfacet
facet normal 9.75927946804913e-007 -3.38484385637817e-006 0.999999999993795
outer loop
vertex 148.185461478255 -45.6800392280741 4.99999999999997
vertex 151.292063196053 -69.2770220026389 4.99999999999997
vertex 151.292063196053 -48.0638185670425 4.99999999999997
endloop
endfacet
facet normal 9.75927946804913e-007 -3.38484385637817e-006 0.999999999993795
outer loop
vertex 151.292063196053 -48.0638185670425 4.99999999999997
vertex 151.292063196053 -69.2770220026389 4.99999999999997
vertex 153.675842535021 -66.1704202848407 4.99999999999997
endloop
endfacet
facet normal 9.75927946804913e-007 -3.38484385637817e-006 0.999999999993795
outer loop
vertex 151.292063196053 -48.0638185670425 4.99999999999997
vertex 153.675842535021 -66.1704202848407 4.99999999999997
vertex 153.675842535021 -51.1704202848407 4.99999999999997
endloop
endfacet
facet normal 9.75927946804913e-007 -3.38484385637817e-006 0.999999999993795
outer loop
vertex 153.675842535021 -51.1704202848407 4.99999999999997
vertex 153.675842535021 -66.1704202848407 4.99999999999997
vertex 155.174348872591 -62.5527059613785 4.99999999999997
endloop
endfacet
facet normal 9.75927946804913e-007 -3.38484385637817e-006 0.999999999993795
outer loop
vertex 153.675842535021 -51.1704202848407 4.99999999999997
vertex 155.174348872591 -62.5527059613785 4.99999999999997
vertex 155.174348872591 -54.7881346083029 4.99999999999997
endloop
endfacet
facet normal 9.75927946804913e-007 -3.38484385637817e-006 0.999999999993795
outer loop
vertex 155.174348872591 -54.7881346083029 4.99999999999997
vertex 155.174348872591 -62.5527059613785 4.99999999999997
vertex 155.685461478255 -58.6704202848407 4.99999999999997
endloop
endfacet
facet normal 9.75927946804913e-007 -3.38484385637817e-006 0.999999999993795
outer loop
vertex 80.8677471547925 -44.1815328905081 4.99999999999997
vertex 81.9854614782548 -72.6963352475435 4.99999999999997
vertex 84.4854614782546 -45.6800392280776 4.99999999999997
endloop
endfacet
facet normal 9.75927946804913e-007 -3.38484385637817e-006 0.999999999993795
outer loop
vertex 81.9854614782548 -72.6963352475435 4.99999999999997
vertex 80.8677471547925 -44.1815328905081 4.99999999999997
vertex 81.9854614782548 -83.6704202848443 4.99999999999997
endloop
endfacet
facet normal 9.75927946804913e-007 -3.38484385637817e-006 0.999999999993795
outer loop
vertex 84.4854614782546 -45.6800392280776 4.99999999999997
vertex 81.9854614782548 -72.6963352475435 4.99999999999997
vertex 84.4854614782546 -71.6608013416108 4.99999999999997
endloop
endfacet
facet normal 9.75927946804913e-007 -3.38484385637817e-006 0.999999999993795
outer loop
vertex 84.4854614782546 -45.6800392280776 4.99999999999997
vertex 84.4854614782546 -71.6608013416108 4.99999999999997
vertex 87.5920631960529 -69.2770220026424 4.99999999999997
endloop
endfacet
facet normal 9.75927946804913e-007 -3.38484385637817e-006 0.999999999993795
outer loop
vertex 84.4854614782546 -45.6800392280776 4.99999999999997
vertex 87.5920631960529 -69.2770220026424 4.99999999999997
vertex 87.5920631960529 -48.0638185670459 4.99999999999997
endloop
endfacet
facet normal 9.75927946804913e-007 -3.38484385637817e-006 0.999999999993795
outer loop
vertex 87.5920631960529 -48.0638185670459 4.99999999999997
vertex 87.5920631960529 -69.2770220026424 4.99999999999997
vertex 89.9758425350212 -66.1704202848442 4.99999999999997
endloop
endfacet
facet normal 9.75927946804913e-007 -3.38484385637817e-006 0.999999999993795
outer loop
vertex 87.5920631960529 -48.0638185670459 4.99999999999997
vertex 89.9758425350212 -66.1704202848442 4.99999999999997
vertex 89.9758425350212 -51.1704202848442 4.99999999999997
endloop
endfacet
facet normal 9.75927946804913e-007 -3.38484385637817e-006 0.999999999993795
outer loop
vertex 89.9758425350212 -51.1704202848442 4.99999999999997
vertex 89.9758425350212 -66.1704202848442 4.99999999999997
vertex 91.4743488725907 -62.5527059613819 4.99999999999997
endloop
endfacet
facet normal 9.75927946804913e-007 -3.38484385637817e-006 0.999999999993795
outer loop
vertex 89.9758425350212 -51.1704202848442 4.99999999999997
vertex 91.4743488725907 -62.5527059613819 4.99999999999997
vertex 91.4743488725907 -54.7881346083064 4.99999999999997
endloop
endfacet
facet normal 9.75927946804913e-007 -3.38484385637817e-006 0.999999999993795
outer loop
vertex 91.4743488725907 -54.7881346083064 4.99999999999997
vertex 91.4743488725907 -62.5527059613819 4.99999999999997
vertex 91.9854614782547 -58.6704202848441 4.99999999999997
endloop
endfacet
facet normal 2.05078630004122e-014 -8.57638832045508e-014 -1.0
outer loop
vertex 62.4965740839187 -54.7881346083064 5.63993296509579e-015
vertex 62.4965740839187 -62.5527059613819 5.63993296509579e-015
vertex 61.9854614782547 -58.6704202848441 5.63993296509579e-015
endloop
endfacet
facet normal 2.05078630004122e-014 -8.57638832045508e-014 -1.0
outer loop
vertex 62.4965740839187 -62.5527059613819 5.63993296509579e-015
vertex 62.4965740839187 -54.7881346083064 5.63993296509579e-015
vertex 63.9950804214881 -51.1704202848442 5.63993296509579e-015
endloop
endfacet
facet normal 2.05078630004122e-014 -8.57638832045508e-014 -1.0
outer loop
vertex 62.4965740839187 -62.5527059613819 5.63993296509579e-015
vertex 63.9950804214881 -51.1704202848442 5.63993296509579e-015
vertex 63.9950804214881 -66.1704202848441 5.63993296509579e-015
endloop
endfacet
facet normal 2.05078630004122e-014 -8.57638832045508e-014 -1.0
outer loop
vertex 63.9950804214881 -66.1704202848441 5.63993296509579e-015
vertex 63.9950804214881 -51.1704202848442 5.63993296509579e-015
vertex 66.3788597604565 -48.0638185670459 5.63993296509579e-015
endloop
endfacet
facet normal 2.05078630004122e-014 -8.57638832045508e-014 -1.0
outer loop
vertex 63.9950804214881 -66.1704202848441 5.63993296509579e-015
vertex 66.3788597604565 -48.0638185670459 5.63993296509579e-015
vertex 66.3788597604565 -69.2770220026424 5.63993296509579e-015
endloop
endfacet
facet normal 2.05078630004122e-014 -8.57638832045508e-014 -1.0
outer loop
vertex 66.3788597604565 -69.2770220026424 5.63993296509579e-015
vertex 66.3788597604565 -48.0638185670459 5.63993296509579e-015
vertex 69.4854614782546 -45.6800392280776 5.63993296509579e-015
endloop
endfacet
facet normal 2.05078630004122e-014 -8.57638832045508e-014 -1.0
outer loop
vertex 66.3788597604565 -69.2770220026424 5.63993296509579e-015
vertex 69.4854614782546 -45.6800392280776 5.63993296509579e-015
vertex 69.4854614782546 -71.6608013416108 5.63993296509579e-015
endloop
endfacet
facet normal 2.05078630004122e-014 -8.57638832045508e-014 -1.0
outer loop
vertex 69.4854614782546 -71.6608013416108 5.63993296509579e-015
vertex 69.4854614782546 -45.6800392280776 5.63993296509579e-015
vertex 73.1031758017168 -44.1815328905081 5.63993296509579e-015
endloop
endfacet
facet normal 2.05078630004122e-014 -8.57638832045508e-014 -1.0
outer loop
vertex 69.4854614782546 -71.6608013416108 5.63993296509579e-015
vertex 73.1031758017168 -44.1815328905081 5.63993296509579e-015
vertex 71.9854614782547 -72.6963352475435 5.63993296509579e-015
endloop
endfacet
facet normal 2.05078630004122e-014 -8.57638832045508e-014 -1.0
outer loop
vertex 71.9854614782547 -72.6963352475435 5.63993296509579e-015
vertex 73.1031758017168 -44.1815328905081 5.63993296509579e-015
vertex 71.9854614782547 -83.6704202848443 5.63993296509579e-015
endloop
endfacet
facet normal 2.05078630004122e-014 -8.57638832045508e-014 -1.0
outer loop
vertex 84.4854614782546 -45.6800392280776 5.63993296509579e-015
vertex 81.9854614782548 -72.6963352475435 5.63993296509579e-015
vertex 80.8677471547925 -44.1815328905081 5.63993296509579e-015
endloop
endfacet
facet normal 2.05078630004122e-014 -8.57638832045508e-014 -1.0
outer loop
vertex 81.9854614782548 -72.6963352475435 5.63993296509579e-015
vertex 84.4854614782546 -45.6800392280776 5.63993296509579e-015
vertex 84.4854614782546 -71.6608013416108 5.63993296509579e-015
endloop
endfacet
facet normal 2.05078630004122e-014 -8.57638832045508e-014 -1.0
outer loop
vertex 84.4854614782546 -71.6608013416108 5.63993296509579e-015
vertex 84.4854614782546 -45.6800392280776 5.63993296509579e-015
vertex 87.5920631960529 -48.0638185670459 5.63993296509579e-015
endloop
endfacet
facet normal 2.05078630004122e-014 -8.57638832045508e-014 -1.0
outer loop
vertex 84.4854614782546 -71.6608013416108 5.63993296509579e-015
vertex 87.5920631960529 -48.0638185670459 5.63993296509579e-015
vertex 87.5920631960529 -69.2770220026424 5.63993296509579e-015
endloop
endfacet
facet normal 2.05078630004122e-014 -8.57638832045508e-014 -1.0
outer loop
vertex 87.5920631960529 -69.2770220026424 5.63993296509579e-015
vertex 87.5920631960529 -48.0638185670459 5.63993296509579e-015
vertex 89.9758425350212 -51.1704202848442 5.63993296509579e-015
endloop
endfacet
facet normal 2.05078630004122e-014 -8.57638832045508e-014 -1.0
outer loop
vertex 87.5920631960529 -69.2770220026424 5.63993296509579e-015
vertex 89.9758425350212 -51.1704202848442 5.63993296509579e-015
vertex 89.9758425350212 -66.1704202848442 5.63993296509579e-015
endloop
endfacet
facet normal 2.05078630004122e-014 -8.57638832045508e-014 -1.0
outer loop
vertex 89.9758425350212 -66.1704202848442 5.63993296509579e-015
vertex 89.9758425350212 -51.1704202848442 5.63993296509579e-015
vertex 91.4743488725907 -54.7881346083064 5.63993296509579e-015
endloop
endfacet
facet normal 2.05078630004122e-014 -8.57638832045508e-014 -1.0
outer loop
vertex 89.9758425350212 -66.1704202848442 5.63993296509579e-015
vertex 91.4743488725907 -54.7881346083064 5.63993296509579e-015
vertex 91.4743488725907 -62.5527059613819 5.63993296509579e-015
endloop
endfacet
facet normal 2.05078630004122e-014 -8.57638832045508e-014 -1.0
outer loop
vertex 91.4743488725907 -62.5527059613819 5.63993296509579e-015
vertex 91.4743488725907 -54.7881346083064 5.63993296509579e-015
vertex 91.9854614782547 -58.6704202848441 5.63993296509579e-015
endloop
endfacet
facet normal 2.05078630004122e-014 -8.57638832045508e-014 -1.0
outer loop
vertex 126.196574083919 -54.7881346083028 4.93494134445882e-015
vertex 126.196574083919 -62.5527059613784 4.93494134445882e-015
vertex 125.685461478255 -58.6704202848406 4.93494134445882e-015
endloop
endfacet
facet normal 2.05078630004122e-014 -8.57638832045508e-014 -1.0
outer loop
vertex 126.196574083919 -62.5527059613784 4.93494134445882e-015
vertex 126.196574083919 -54.7881346083028 4.93494134445882e-015
vertex 127.695080421488 -51.1704202848406 4.93494134445882e-015
endloop
endfacet
facet normal 2.05078630004122e-014 -8.57638832045508e-014 -1.0
outer loop
vertex 126.196574083919 -62.5527059613784 4.93494134445882e-015
vertex 127.695080421488 -51.1704202848406 4.93494134445882e-015
vertex 127.695080421488 -66.1704202848406 4.93494134445882e-015
endloop
endfacet
facet normal 2.05078630004122e-014 -8.57638832045508e-014 -1.0
outer loop
vertex 127.695080421488 -66.1704202848406 4.93494134445882e-015
vertex 127.695080421488 -51.1704202848406 4.93494134445882e-015
vertex 130.078859760457 -48.0638185670423 4.93494134445882e-015
endloop
endfacet
facet normal 2.05078630004122e-014 -8.57638832045508e-014 -1.0
outer loop
vertex 127.695080421488 -66.1704202848406 4.93494134445882e-015
vertex 130.078859760457 -48.0638185670423 4.93494134445882e-015
vertex 130.078859760456 -69.2770220026389 4.93494134445882e-015
endloop
endfacet
facet normal 2.05078630004122e-014 -8.57638832045508e-014 -1.0
outer loop
vertex 130.078859760456 -69.2770220026389 4.93494134445882e-015
vertex 130.078859760457 -48.0638185670423 4.93494134445882e-015
vertex 133.185461478255 -71.6608013416072 4.93494134445882e-015
endloop
endfacet
facet normal 2.05078630004122e-014 -8.57638832045508e-014 -1.0
outer loop
vertex 133.185461478255 -71.6608013416072 4.93494134445882e-015
vertex 130.078859760457 -48.0638185670423 4.93494134445882e-015
vertex 133.185461478255 -45.680039228074 4.93494134445882e-015
endloop
endfacet
facet normal 2.05078630004122e-014 -8.57638832045508e-014 -1.0
outer loop
vertex 133.185461478255 -71.6608013416072 4.93494134445882e-015
vertex 133.185461478255 -45.680039228074 4.93494134445882e-015
vertex 136.803175801717 -44.1815328905046 4.93494134445882e-015
endloop
endfacet
facet normal 2.05078630004122e-014 -8.57638832045508e-014 -1.0
outer loop
vertex 133.185461478255 -71.6608013416072 4.93494134445882e-015
vertex 136.803175801717 -44.1815328905046 4.93494134445882e-015
vertex 135.685461478255 -72.69633524754 4.93494134445882e-015
endloop
endfacet
facet normal 2.05078630004122e-014 -8.57638832045508e-014 -1.0
outer loop
vertex 135.685461478255 -72.69633524754 4.93494134445882e-015
vertex 136.803175801717 -44.1815328905046 4.93494134445882e-015
vertex 135.685461478255 -83.6704202848406 4.93494134445882e-015
endloop
endfacet
facet normal 2.05078630004122e-014 -8.57638832045508e-014 -1.0
outer loop
vertex 148.185461478255 -45.6800392280741 4.93494134445882e-015
vertex 145.685461478255 -72.69633524754 4.93494134445882e-015
vertex 144.567747154793 -44.1815328905046 4.93494134445882e-015
endloop
endfacet
facet normal 2.05078630004122e-014 -8.57638832045508e-014 -1.0
outer loop
vertex 145.685461478255 -72.69633524754 4.93494134445882e-015
vertex 148.185461478255 -45.6800392280741 4.93494134445882e-015
vertex 148.185461478255 -71.6608013416072 4.93494134445882e-015
endloop
endfacet
facet normal 2.05078630004122e-014 -8.57638832045508e-014 -1.0
outer loop
vertex 148.185461478255 -71.6608013416072 4.93494134445882e-015
vertex 148.185461478255 -45.6800392280741 4.93494134445882e-015
vertex 151.292063196053 -69.2770220026389 4.93494134445882e-015
endloop
endfacet
facet normal 2.05078630004122e-014 -8.57638832045508e-014 -1.0
outer loop
vertex 151.292063196053 -69.2770220026389 4.93494134445882e-015
vertex 148.185461478255 -45.6800392280741 4.93494134445882e-015
vertex 151.292063196053 -48.0638185670425 4.93494134445882e-015
endloop
endfacet
facet normal 2.05078630004122e-014 -8.57638832045508e-014 -1.0
outer loop
vertex 151.292063196053 -69.2770220026389 4.93494134445882e-015
vertex 151.292063196053 -48.0638185670425 4.93494134445882e-015
vertex 153.675842535021 -66.1704202848407 4.93494134445882e-015
endloop
endfacet
facet normal 2.05078630004122e-014 -8.57638832045508e-014 -1.0
outer loop
vertex 153.675842535021 -66.1704202848407 4.93494134445882e-015
vertex 151.292063196053 -48.0638185670425 4.93494134445882e-015
vertex 153.675842535021 -51.1704202848407 4.93494134445882e-015
endloop
endfacet
facet normal 2.05078630004122e-014 -8.57638832045508e-014 -1.0
outer loop
vertex 153.675842535021 -66.1704202848407 4.93494134445882e-015
vertex 153.675842535021 -51.1704202848407 4.93494134445882e-015
vertex 155.174348872591 -54.7881346083029 4.93494134445882e-015
endloop
endfacet
facet normal 2.05078630004122e-014 -8.57638832045508e-014 -1.0
outer loop
vertex 153.675842535021 -66.1704202848407 4.93494134445882e-015
vertex 155.174348872591 -54.7881346083029 4.93494134445882e-015
vertex 155.174348872591 -62.5527059613785 4.93494134445882e-015
endloop
endfacet
facet normal 2.05078630004122e-014 -8.57638832045508e-014 -1.0
outer loop
vertex 155.174348872591 -62.5527059613785 4.93494134445882e-015
vertex 155.174348872591 -54.7881346083029 4.93494134445882e-015
vertex 155.685461478255 -58.6704202848407 4.93494134445882e-015
endloop
endfacet
facet normal 2.05078630004122e-014 -8.57638832045508e-014 -1.0
outer loop
vertex 145.685461478255 -83.6704202848406 4.93494134445882e-015
vertex 149.985461480749 -93.5704202848602 9.82914755275211e-010
vertex 149.985461479511 -98.7704202846633 1.01063027312234e-009
endloop
endfacet
facet normal 2.05078630004122e-014 -8.57638832045508e-014 -1.0
outer loop
vertex 149.985461480749 -93.5704202848602 9.82914755275211e-010
vertex 145.685461478255 -83.6704202848406 4.93494134445882e-015
vertex 155.185461477226 -83.6704202848382 3.04344882628982e-012
endloop
endfacet
facet normal 2.05078630004122e-014 -8.57638832045508e-014 -1.0
outer loop
vertex 149.985461480749 -93.5704202848602 9.82914755275211e-010
vertex 155.185461477226 -83.6704202848382 3.04344882628982e-012
vertex 155.185461480749 -93.5704202870625 -2.02420052755761e-011
endloop
endfacet
facet normal 2.05078630004122e-014 -8.57638832045508e-014 -1.0
outer loop
vertex 15.2854614782546 -83.6704202849684 0.0
vertex 155.185461474839 -146.970420285014 2.15318540774945e-011
vertex 15.2854614782311 -146.97042028499 0.0
endloop
endfacet
facet normal 2.05078630004122e-014 -8.57638832045508e-014 -1.0
outer loop
vertex 155.185461474839 -146.970420285014 2.15318540774945e-011
vertex 15.2854614782546 -83.6704202849684 0.0
vertex 71.9854614782547 -83.6704202848443 5.63993296509579e-015
endloop
endfacet
facet normal 2.05078630004122e-014 -8.57638832045508e-014 -1.0
outer loop
vertex 155.185461474839 -146.970420285014 2.15318540774945e-011
vertex 71.9854614782547 -83.6704202848443 5.63993296509579e-015
vertex 81.9854614782548 -83.6704202848443 5.63993296509579e-015
endloop
endfacet
facet normal 2.05078630004122e-014 -8.57638832045508e-014 -1.0
outer loop
vertex 81.9854614782548 -83.6704202848443 5.63993296509579e-015
vertex 71.9854614782547 -83.6704202848443 5.63993296509579e-015
vertex 73.1031758017168 -44.1815328905081 5.63993296509579e-015
endloop
endfacet
facet normal 2.05078630004122e-014 -8.57638832045508e-014 -1.0
outer loop
vertex 81.9854614782548 -83.6704202848443 5.63993296509579e-015
vertex 73.1031758017168 -44.1815328905081 5.63993296509579e-015
vertex 76.9854614782547 -43.6704202848442 5.63993296509579e-015
endloop
endfacet
facet normal 2.05078630004122e-014 -8.57638832045508e-014 -1.0
outer loop
vertex 81.9854614782548 -83.6704202848443 5.63993296509579e-015
vertex 76.9854614782547 -43.6704202848442 5.63993296509579e-015
vertex 80.8677471547925 -44.1815328905081 5.63993296509579e-015
endloop
endfacet
facet normal 2.05078630004122e-014 -8.57638832045508e-014 -1.0
outer loop
vertex 81.9854614782548 -83.6704202848443 5.63993296509579e-015
vertex 80.8677471547925 -44.1815328905081 5.63993296509579e-015
vertex 81.9854614782548 -72.6963352475435 5.63993296509579e-015
endloop
endfacet
facet normal 2.05078630004122e-014 -8.57638832045508e-014 -1.0
outer loop
vertex 155.185461474839 -146.970420285014 2.15318540774945e-011
vertex 81.9854614782548 -83.6704202848443 5.63993296509579e-015
vertex 135.685461478255 -83.6704202848406 4.93494134445882e-015
endloop
endfacet
facet normal 2.05078630004122e-014 -8.57638832045508e-014 -1.0
outer loop
vertex 155.185461474839 -146.970420285014 2.15318540774945e-011
vertex 135.685461478255 -83.6704202848406 4.93494134445882e-015
vertex 136.803175801717 -44.1815328905046 4.93494134445882e-015
endloop
endfacet
facet normal 2.05078630004122e-014 -8.57638832045508e-014 -1.0
outer loop
vertex 155.185461474839 -146.970420285014 2.15318540774945e-011
vertex 136.803175801717 -44.1815328905046 4.93494134445882e-015
vertex 145.685461478255 -83.6704202848406 4.93494134445882e-015
endloop
endfacet
facet normal 2.05078630004122e-014 -8.57638832045508e-014 -1.0
outer loop
vertex 145.685461478255 -83.6704202848406 4.93494134445882e-015
vertex 136.803175801717 -44.1815328905046 4.93494134445882e-015
vertex 140.685461478255 -43.6704202848406 4.93494134445882e-015
endloop
endfacet
facet normal 2.05078630004122e-014 -8.57638832045508e-014 -1.0
outer loop
vertex 145.685461478255 -83.6704202848406 4.93494134445882e-015
vertex 140.685461478255 -43.6704202848406 4.93494134445882e-015
vertex 144.567747154793 -44.1815328905046 4.93494134445882e-015
endloop
endfacet
facet normal 2.05078630004122e-014 -8.57638832045508e-014 -1.0
outer loop
vertex 145.685461478255 -83.6704202848406 4.93494134445882e-015
vertex 144.567747154793 -44.1815328905046 4.93494134445882e-015
vertex 145.685461478255 -72.69633524754 4.93494134445882e-015
endloop
endfacet
facet normal 2.05078630004122e-014 -8.57638832045508e-014 -1.0
outer loop
vertex 155.185461474839 -146.970420285014 2.15318540774945e-011
vertex 145.685461478255 -83.6704202848406 4.93494134445882e-015
vertex 149.985461479511 -98.7704202846633 1.01063027312234e-009
endloop
endfacet
facet normal 2.05078630004122e-014 -8.57638832045508e-014 -1.0
outer loop
vertex 155.185461474839 -146.970420285014 2.15318540774945e-011
vertex 149.985461479511 -98.7704202846633 1.01063027312234e-009
vertex 155.185461479511 -98.7704202868655 7.47351257155345e-012
endloop
endfacet
facet normal -1.70152786952008e-012 1.0 -4.78101546868211e-012
outer loop
vertex 15.2854614782546 -83.6704202849684 0.0
vertex 24.9854614782547 -83.6704202848881 4.99999999999997
vertex 71.9854614782547 -83.6704202848443 5.63993296509579e-015
endloop
endfacet
facet normal -1.70152786952008e-012 1.0 -4.78101546868211e-012
outer loop
vertex 24.9854614782547 -83.6704202848881 4.99999999999997
vertex 15.2854614782546 -83.6704202849684 0.0
vertex 15.2854614782546 -83.6704202848882 12
endloop
endfacet
facet normal -1.70152786952008e-012 1.0 -4.78101546868211e-012
outer loop
vertex 71.9854614782547 -83.6704202848443 5.63993296509579e-015
vertex 24.9854614782547 -83.6704202848881 4.99999999999997
vertex 71.9854614782547 -83.6704202848443 4.99999999999997
endloop
endfacet
facet normal -1.70152786952008e-012 1.0 -4.78101546868211e-012
outer loop
vertex 24.9854614782547 -83.6704202848881 4.99999999999997
vertex 15.2854614782546 -83.6704202848882 12
vertex 24.9854614782547 -83.6704202848881 12
endloop
endfacet
facet normal 1.42517928385581e-012 0.866025403784454 -0.499999999999973
outer loop
vertex 15.2854614782544 -89.8828558501864 9.19999999999997
vertex 24.9854614782536 -90.0227164416976 8.86234666316298
vertex 15.285461478255 -90.0227164416928 8.8623466631435
endloop
endfacet
facet normal 9.93834123792571e-013 0.965925826289068 -0.258819045102523
outer loop
vertex 24.9854614782536 -90.0227164416976 8.86234666316298
vertex 15.2854614782544 -89.8828558501864 9.19999999999997
vertex 24.9854614782531 -89.8828558501911 9.20000000001945
endloop
endfacet
facet normal 1.76203284863948e-012 0.707106781186566 -0.707106781186529
outer loop
vertex 15.2854614782539 -89.6603697785494 9.48994949366113
vertex 24.9854614782531 -89.8828558501911 9.20000000001945
vertex 15.2854614782544 -89.8828558501864 9.19999999999997
endloop
endfacet
facet normal 1.42517928385581e-012 0.866025403784454 -0.499999999999973
outer loop
vertex 24.9854614782531 -89.8828558501911 9.20000000001945
vertex 15.2854614782539 -89.6603697785494 9.48994949366113
vertex 24.9854614782526 -89.6603697785541 9.48994949368061
endloop
endfacet
facet normal 1.98097427718895e-012 0.499999999999998 -0.86602540378444
outer loop
vertex 24.9854614782524 -89.3704202848929 9.71243556531766
vertex 15.2854614782539 -89.6603697785494 9.48994949366113
vertex 15.2854614782537 -89.3704202848882 9.71243556529818
endloop
endfacet
facet normal 1.76203284863948e-012 0.707106781186566 -0.707106781186529
outer loop
vertex 15.2854614782539 -89.6603697785494 9.48994949366113
vertex 24.9854614782524 -89.3704202848929 9.71243556531766
vertex 24.9854614782526 -89.6603697785541 9.48994949368061
endloop
endfacet
facet normal 2.06491543920406e-012 0.25881904510251 -0.965925826289071
outer loop
vertex 24.9854614782522 -89.0327669480364 9.85229615682414
vertex 15.2854614782537 -89.3704202848882 9.71243556529818
vertex 15.2854614782535 -89.0327669480317 9.85229615680466
endloop
endfacet
facet normal 1.98097427718894e-012 0.500000000000011 -0.866025403784432
outer loop
vertex 15.2854614782537 -89.3704202848882 9.71243556529818
vertex 24.9854614782522 -89.0327669480364 9.85229615682414
vertex 24.9854614782524 -89.3704202848929 9.71243556531766
endloop
endfacet
facet normal 2.00782979463169e-012 -6.87046572954262e-015 -1.0
outer loop
vertex 15.2854614782537 -88.6704202848882 9.89999999999996
vertex 24.9854614782522 -89.0327669480364 9.85229615682414
vertex 15.2854614782535 -89.0327669480317 9.85229615680466
endloop
endfacet
facet normal 2.06491543920406e-012 0.25881904510251 -0.965925826289071
outer loop
vertex 24.9854614782522 -89.0327669480364 9.85229615682414
vertex 15.2854614782537 -88.6704202848882 9.89999999999996
vertex 24.9854614782524 -88.6704202848929 9.90000000001945
endloop
endfacet
facet normal 4.56910013090007e-014 -0.965925826289073 -0.258819045102503
outer loop
vertex 24.9854614782551 -87.3181241280882 8.86234666316298
vertex 15.2854614782555 -87.45798471959 9.19999999999997
vertex 15.2854614782562 -87.3181241280835 8.8623466631435
endloop
endfacet
facet normal 5.81168039828102e-013 -0.866025403784439 -0.499999999999999
outer loop
vertex 15.2854614782555 -87.45798471959 9.19999999999997
vertex 24.9854614782551 -87.3181241280882 8.86234666316298
vertex 24.9854614782542 -87.4579847195947 9.20000000001945
endloop
endfacet
facet normal -1.0 4.56180481358971e-013 -2.49519567639768e-014
outer loop
vertex 15.2854614782546 -93.6704202848881 12
vertex 15.2854614782539 -89.6603697785494 9.48994949366113
vertex 15.2854614782546 -93.6704202848881 4.99999999999997
endloop
endfacet
facet normal -1.0 4.56180481358971e-013 -2.49519567639768e-014
outer loop
vertex 15.2854614782539 -89.6603697785494 9.48994949366113
vertex 15.2854614782546 -93.6704202848881 12
vertex 15.2854614782537 -89.3704202848882 9.71243556529818
endloop
endfacet
facet normal -1.0 4.56180481358971e-013 -2.49519567639768e-014
outer loop
vertex 15.2854614782537 -89.3704202848882 9.71243556529818
vertex 15.2854614782546 -93.6704202848881 12
vertex 15.2854614782535 -89.0327669480317 9.85229615680466
endloop
endfacet
facet normal -1.0 4.56180481358971e-013 -2.49519567639768e-014
outer loop
vertex 15.2854614782535 -89.0327669480317 9.85229615680466
vertex 15.2854614782546 -93.6704202848881 12
vertex 15.2854614782546 -83.6704202848882 12
endloop
endfacet
facet normal -1.0 4.56180481358971e-013 -2.49519567639768e-014
outer loop
vertex 15.2854614782546 -93.6704202848881 4.99999999999997
vertex 15.2854614782539 -89.6603697785494 9.48994949366113
vertex 15.2854614782544 -89.8828558501864 9.19999999999997
endloop
endfacet
facet normal -1.0 4.56180481358971e-013 -2.49519567639768e-014
outer loop
vertex 15.2854614782546 -93.6704202848881 4.99999999999997
vertex 15.2854614782544 -89.8828558501864 9.19999999999997
vertex 15.285461478255 -90.0227164416928 8.8623466631435
endloop
endfacet
facet normal -1.0 4.56180481358971e-013 -2.49519567639768e-014
outer loop
vertex 15.2854614782546 -93.6704202848881 4.99999999999997
vertex 15.285461478255 -90.0227164416928 8.8623466631435
vertex 15.2854614782557 -90.0704202848881 8.49999999999997
endloop
endfacet
facet normal -1.0 4.56180481358971e-013 -2.49519567639768e-014
outer loop
vertex 15.2854614782535 -89.0327669480317 9.85229615680466
vertex 15.2854614782546 -83.6704202848882 12
vertex 15.2854614782537 -88.6704202848882 9.89999999999996
endloop
endfacet
facet normal -1.0 4.56180481358971e-013 -2.49519567639768e-014
outer loop
vertex 15.2854614782537 -88.6704202848882 9.89999999999996
vertex 15.2854614782546 -83.6704202848882 12
vertex 15.2854614782539 -88.3080736217446 9.85229615680466
endloop
endfacet
facet normal -1.0 4.56180481358971e-013 -2.49519567639768e-014
outer loop
vertex 15.2854614782539 -88.3080736217446 9.85229615680466
vertex 15.2854614782546 -83.6704202848882 12
vertex 15.2854614782544 -87.9704202848882 9.71243556529818
endloop
endfacet
facet normal -1.0 4.56180481358971e-013 -2.49519567639768e-014
outer loop
vertex 15.2854614782544 -87.9704202848882 9.71243556529818
vertex 15.2854614782546 -83.6704202848882 12
vertex 15.285461478255 -87.680470791227 9.48994949366113
endloop
endfacet
facet normal -1.0 4.56180481358971e-013 -2.49519567639768e-014
outer loop
vertex 15.285461478255 -87.680470791227 9.48994949366113
vertex 15.2854614782546 -83.6704202848882 12
vertex 15.2854614782555 -87.45798471959 9.19999999999997
endloop
endfacet
facet normal -1.0 4.56180481358971e-013 -2.49519567639768e-014
outer loop
vertex 15.2854614782555 -87.45798471959 9.19999999999997
vertex 15.2854614782546 -83.6704202848882 12
vertex 15.2854614782562 -87.3181241280835 8.8623466631435
endloop
endfacet
facet normal -1.0 4.56180481358971e-013 -2.49519567639768e-014
outer loop
vertex 15.2854614782562 -87.3181241280835 8.8623466631435
vertex 15.2854614782546 -83.6704202848882 12
vertex 15.2854614782571 -87.2704202848881 8.49999999999997
endloop
endfacet
facet normal -1.0 4.56180481358971e-013 -2.49519567639768e-014
outer loop
vertex 15.2854614782571 -87.2704202848881 8.49999999999997
vertex 15.2854614782546 -83.6704202848882 12
vertex 15.2854614782546 -83.6704202849684 0.0
endloop
endfacet
facet normal -1.0 4.56180481358971e-013 -2.49519567639768e-014
outer loop
vertex 15.2854614782546 -93.6704202848881 4.99999999999997
vertex 15.2854614782311 -146.97042028499 0.0
vertex 15.2854614782239 -146.97042028499 4.99999999999997
endloop
endfacet
facet normal -1.0 4.56180481358971e-013 -2.49519567639768e-014
outer loop
vertex 15.2854614782311 -146.97042028499 0.0
vertex 15.2854614782546 -93.6704202848881 4.99999999999997
vertex 15.2854614782546 -83.6704202849684 0.0
endloop
endfacet
facet normal -1.0 4.56180481358971e-013 -2.49519567639768e-014
outer loop
vertex 15.2854614782546 -83.6704202849684 0.0
vertex 15.2854614782546 -93.6704202848881 4.99999999999997
vertex 15.2854614782578 -89.6603697785494 7.5100505063388
endloop
endfacet
facet normal -1.0 4.56180481358971e-013 -2.49519567639768e-014
outer loop
vertex 15.2854614782578 -89.6603697785494 7.5100505063388
vertex 15.2854614782546 -93.6704202848881 4.99999999999997
vertex 15.2854614782571 -89.8828558501864 7.79999999999997
endloop
endfacet
facet normal -1.0 4.56180481358971e-013 -2.49519567639768e-014
outer loop
vertex 15.2854614782571 -89.8828558501864 7.79999999999997
vertex 15.2854614782546 -93.6704202848881 4.99999999999997
vertex 15.2854614782564 -90.0227164416928 8.13765333685644
endloop
endfacet
facet normal -1.0 4.56180481358971e-013 -2.49519567639768e-014
outer loop
vertex 15.2854614782564 -90.0227164416928 8.13765333685644
vertex 15.2854614782546 -93.6704202848881 4.99999999999997
vertex 15.2854614782557 -90.0704202848881 8.49999999999997
endloop
endfacet
facet normal -1.0 4.56180481358971e-013 -2.49519567639768e-014
outer loop
vertex 15.2854614782546 -83.6704202849684 0.0
vertex 15.2854614782578 -89.6603697785494 7.5100505063388
vertex 15.2854614782584 -89.3704202848882 7.28756443470176
endloop
endfacet
facet normal -1.0 4.56180481358971e-013 -2.49519567639768e-014
outer loop
vertex 15.2854614782546 -83.6704202849684 0.0
vertex 15.2854614782584 -89.3704202848882 7.28756443470176
vertex 15.2854614782587 -89.0327669480317 7.14770384319528
endloop
endfacet
facet normal -1.0 4.56180481358971e-013 -2.49519567639768e-014
outer loop
vertex 15.2854614782546 -83.6704202849684 0.0
vertex 15.2854614782587 -89.0327669480317 7.14770384319528
vertex 15.2854614782591 -88.6704202848882 7.09999999999997
endloop
endfacet
facet normal -1.0 4.56180481358971e-013 -2.49519567639768e-014
outer loop
vertex 15.2854614782546 -83.6704202849684 0.0
vertex 15.2854614782591 -88.6704202848882 7.09999999999997
vertex 15.2854614782591 -88.3080736217446 7.14770384319528
endloop
endfacet
facet normal -1.0 4.56180481358971e-013 -2.49519567639768e-014
outer loop
vertex 15.2854614782546 -83.6704202849684 0.0
vertex 15.2854614782591 -88.3080736217446 7.14770384319528
vertex 15.2854614782591 -87.9704202848882 7.28756443470176
endloop
endfacet
facet normal -1.0 4.56180481358971e-013 -2.49519567639768e-014
outer loop
vertex 15.2854614782546 -83.6704202849684 0.0
vertex 15.2854614782591 -87.9704202848882 7.28756443470176
vertex 15.2854614782587 -87.680470791227 7.5100505063388
endloop
endfacet
facet normal -1.0 4.56180481358971e-013 -2.49519567639768e-014
outer loop
vertex 15.2854614782546 -83.6704202849684 0.0
vertex 15.2854614782587 -87.680470791227 7.5100505063388
vertex 15.2854614782584 -87.45798471959 7.79999999999997
endloop
endfacet
facet normal -1.0 4.56180481358971e-013 -2.49519567639768e-014
outer loop
vertex 15.2854614782546 -83.6704202849684 0.0
vertex 15.2854614782584 -87.45798471959 7.79999999999997
vertex 15.2854614782577 -87.3181241280835 8.13765333685644
endloop
endfacet
facet normal -1.0 4.56180481358971e-013 -2.49519567639768e-014
outer loop
vertex 15.2854614782546 -83.6704202849684 0.0
vertex 15.2854614782577 -87.3181241280835 8.13765333685644
vertex 15.2854614782571 -87.2704202848881 8.49999999999997
endloop
endfacet
facet normal 1.81233632036771e-012 -0.258819045102524 -0.965925826289068
outer loop
vertex 15.2854614782539 -88.3080736217446 9.85229615680466
vertex 24.9854614782524 -88.6704202848929 9.90000000001945
vertex 15.2854614782537 -88.6704202848882 9.89999999999996
endloop
endfacet
facet normal 2.00782979463169e-012 -9.24973207168303e-015 -1.0
outer loop
vertex 24.9854614782524 -88.6704202848929 9.90000000001945
vertex 15.2854614782539 -88.3080736217446 9.85229615680466
vertex 24.9854614782526 -88.3080736217494 9.85229615682414
endloop
endfacet
facet normal 1.49250019834159e-012 -0.500000000000002 -0.866025403784438
outer loop
vertex 15.2854614782544 -87.9704202848882 9.71243556529818
vertex 24.9854614782526 -88.3080736217494 9.85229615682414
vertex 15.2854614782539 -88.3080736217446 9.85229615680466
endloop
endfacet
facet normal 1.81233632036771e-012 -0.258819045102524 -0.965925826289068
outer loop
vertex 24.9854614782526 -88.3080736217494 9.85229615682414
vertex 15.2854614782544 -87.9704202848882 9.71243556529818
vertex 24.9854614782531 -87.970420284893 9.71243556531766
endloop
endfacet
facet normal 5.81168039828139e-013 -0.86602540378443 -0.500000000000015
outer loop
vertex 24.9854614782542 -87.4579847195947 9.20000000001945
vertex 15.285461478255 -87.680470791227 9.48994949366113
vertex 15.2854614782555 -87.45798471959 9.19999999999997
endloop
endfacet
facet normal 1.0732274986814e-012 -0.707106781186542 -0.707106781186553
outer loop
vertex 15.285461478255 -87.680470791227 9.48994949366113
vertex 24.9854614782542 -87.4579847195947 9.20000000001945
vertex 24.9854614782536 -87.6804707912318 9.48994949368061
endloop
endfacet
facet normal 1.0732274986814e-012 -0.707106781186542 -0.707106781186553
outer loop
vertex 15.285461478255 -87.680470791227 9.48994949366113
vertex 24.9854614782531 -87.970420284893 9.71243556531766
vertex 15.2854614782544 -87.9704202848882 9.71243556529818
endloop
endfacet
facet normal 1.49250019834158e-012 -0.500000000000011 -0.866025403784432
outer loop
vertex 24.9854614782531 -87.970420284893 9.71243556531766
vertex 15.285461478255 -87.680470791227 9.48994949366113
vertex 24.9854614782536 -87.6804707912318 9.48994949368061
endloop
endfacet
facet normal -9.93833954942377e-013 -0.965925826289071 0.258819045102512
outer loop
vertex 24.9854614782564 -87.3181241280882 8.13765333687592
vertex 15.2854614782571 -87.2704202848881 8.49999999999997
vertex 15.2854614782577 -87.3181241280835 8.13765333685644
endloop
endfacet
facet normal -4.93048410900265e-013 -1.0 1.0604220775817e-015
outer loop
vertex 15.2854614782571 -87.2704202848881 8.49999999999997
vertex 24.9854614782564 -87.3181241280882 8.13765333687592
vertex 24.9854614782558 -87.2704202848929 8.50000000001945
endloop
endfacet
facet normal -4.93048410900218e-013 -1.0 -2.22866858490156e-014
outer loop
vertex 24.9854614782558 -87.2704202848929 8.50000000001945
vertex 15.2854614782562 -87.3181241280835 8.8623466631435
vertex 15.2854614782571 -87.2704202848881 8.49999999999997
endloop
endfacet
facet normal 4.56910013090609e-014 -0.965925826289066 -0.258819045102531
outer loop
vertex 15.2854614782562 -87.3181241280835 8.8623466631435
vertex 24.9854614782558 -87.2704202848929 8.50000000001945
vertex 24.9854614782551 -87.3181241280882 8.86234666316298
endloop
endfacet
facet normal 0.0 1.0 0.0
outer loop
vertex 76.9854614782547 -43.6704202848442 4.99999999999997
vertex 80.8677471547925 -44.1815328905081 5.63993296509579e-015
vertex 76.9854614782547 -43.6704202848442 5.63993296509579e-015
endloop
endfacet
facet normal 0.25881904510252 0.965925826289069 0.0
outer loop
vertex 80.8677471547925 -44.1815328905081 5.63993296509579e-015
vertex 76.9854614782547 -43.6704202848442 4.99999999999997
vertex 80.8677471547925 -44.1815328905081 4.99999999999997
endloop
endfacet
facet normal 0.25881904510252 0.965925826289069 0.0
outer loop
vertex 80.8677471547925 -44.1815328905081 4.99999999999997
vertex 84.4854614782546 -45.6800392280776 5.63993296509579e-015
vertex 80.8677471547925 -44.1815328905081 5.63993296509579e-015
endloop
endfacet
facet normal 0.500000000000002 0.866025403784438 0.0
outer loop
vertex 84.4854614782546 -45.6800392280776 5.63993296509579e-015
vertex 80.8677471547925 -44.1815328905081 4.99999999999997
vertex 84.4854614782546 -45.6800392280776 4.99999999999997
endloop
endfacet
facet normal -0.86602540378444 0.499999999999998 0.0
outer loop
vertex 63.9950804214881 -51.1704202848442 4.99999999999997
vertex 62.4965740839187 -54.7881346083064 5.63993296509579e-015
vertex 62.4965740839187 -54.7881346083064 4.99999999999997
endloop
endfacet
facet normal -0.965925826289066 0.258819045102528 0.0
outer loop
vertex 62.4965740839187 -54.7881346083064 5.63993296509579e-015
vertex 63.9950804214881 -51.1704202848442 4.99999999999997
vertex 63.9950804214881 -51.1704202848442 5.63993296509579e-015
endloop
endfacet
facet normal -0.500000000000007 0.866025403784435 0.0
outer loop
vertex 69.4854614782546 -45.6800392280776 4.99999999999997
vertex 73.1031758017168 -44.1815328905081 5.63993296509579e-015
vertex 69.4854614782546 -45.6800392280776 5.63993296509579e-015
endloop
endfacet
facet normal -0.258819045102511 0.965925826289071 0.0
outer loop
vertex 73.1031758017168 -44.1815328905081 5.63993296509579e-015
vertex 69.4854614782546 -45.6800392280776 4.99999999999997
vertex 73.1031758017168 -44.1815328905081 4.99999999999997
endloop
endfacet
facet normal -0.258819045102511 0.965925826289071 0.0
outer loop
vertex 73.1031758017168 -44.1815328905081 4.99999999999997
vertex 76.9854614782547 -43.6704202848442 5.63993296509579e-015
vertex 73.1031758017168 -44.1815328905081 5.63993296509579e-015
endloop
endfacet
facet normal 0.0 1.0 0.0
outer loop
vertex 76.9854614782547 -43.6704202848442 5.63993296509579e-015
vertex 73.1031758017168 -44.1815328905081 4.99999999999997
vertex 76.9854614782547 -43.6704202848442 4.99999999999997
endloop
endfacet
facet normal 1.0 0.0 0.0
outer loop
vertex 145.685461478255 -72.69633524754 4.93494134445882e-015
vertex 145.685461478255 -83.6704202848406 4.99999999999997
vertex 145.685461478255 -83.6704202848406 4.93494134445882e-015
endloop
endfacet
facet normal 1.0 0.0 0.0
outer loop
vertex 145.685461478255 -83.6704202848406 4.99999999999997
vertex 145.685461478255 -72.69633524754 4.93494134445882e-015
vertex 145.685461478255 -72.69633524754 4.99999999999997
endloop
endfacet
facet normal 0.500000000000006 -0.866025403784435 0.0
outer loop
vertex 148.185461478255 -71.6608013416072 4.99999999999997
vertex 145.685461478255 -72.69633524754 4.93494134445882e-015
vertex 148.185461478255 -71.6608013416072 4.93494134445882e-015
endloop
endfacet
facet normal 0.382683432365114 -0.923879532511277 0.0
outer loop
vertex 145.685461478255 -72.69633524754 4.93494134445882e-015
vertex 148.185461478255 -71.6608013416072 4.99999999999997
vertex 145.685461478255 -72.69633524754 4.99999999999997
endloop
endfacet
facet normal 0.965925826289072 0.258819045102506 0.0
outer loop
vertex 155.174348872591 -54.7881346083029 4.93494134445882e-015
vertex 155.685461478255 -58.6704202848407 4.99999999999997
vertex 155.685461478255 -58.6704202848407 4.93494134445882e-015
endloop
endfacet
facet normal 1.0 0.0 0.0
outer loop
vertex 155.685461478255 -58.6704202848407 4.99999999999997
vertex 155.174348872591 -54.7881346083029 4.93494134445882e-015
vertex 155.174348872591 -54.7881346083029 4.99999999999997
endloop
endfacet
facet normal 0.866025403784447 0.499999999999986 0.0
outer loop
vertex 153.675842535021 -51.1704202848407 4.93494134445882e-015
vertex 155.174348872591 -54.7881346083029 4.99999999999997
vertex 155.174348872591 -54.7881346083029 4.93494134445882e-015
endloop
endfacet
facet normal 0.965925826289072 0.258819045102506 0.0
outer loop
vertex 155.174348872591 -54.7881346083029 4.99999999999997
vertex 153.675842535021 -51.1704202848407 4.93494134445882e-015
vertex 153.675842535021 -51.1704202848407 4.99999999999997
endloop
endfacet
facet normal 0.707106781186549 0.707106781186546 0.0
outer loop
vertex 151.292063196053 -48.0638185670425 4.93494134445882e-015
vertex 153.675842535021 -51.1704202848407 4.99999999999997
vertex 153.675842535021 -51.1704202848407 4.93494134445882e-015
endloop
endfacet
facet normal 0.866025403784447 0.499999999999986 0.0
outer loop
vertex 153.675842535021 -51.1704202848407 4.99999999999997
vertex 151.292063196053 -48.0638185670425 4.93494134445882e-015
vertex 151.292063196053 -48.0638185670425 4.99999999999997
endloop
endfacet
facet normal -0.965925826289067 0.258819045102527 0.0
outer loop
vertex 126.196574083919 -54.7881346083028 4.99999999999997
vertex 125.685461478255 -58.6704202848406 4.93494134445882e-015
vertex 125.685461478255 -58.6704202848406 4.99999999999997
endloop
endfacet
facet normal -1.0 0.0 0.0
outer loop
vertex 125.685461478255 -58.6704202848406 4.93494134445882e-015
vertex 126.196574083919 -54.7881346083028 4.99999999999997
vertex 126.196574083919 -54.7881346083028 4.93494134445882e-015
endloop
endfacet
facet normal -1.0 0.0 0.0
outer loop
vertex 125.685461478255 -58.6704202848406 4.99999999999997
vertex 126.196574083919 -62.5527059613784 4.93494134445882e-015
vertex 126.196574083919 -62.5527059613784 4.99999999999997
endloop
endfacet
facet normal -0.965925826289067 -0.258819045102527 0.0
outer loop
vertex 126.196574083919 -62.5527059613784 4.93494134445882e-015
vertex 125.685461478255 -58.6704202848406 4.99999999999997
vertex 125.685461478255 -58.6704202848406 4.93494134445882e-015
endloop
endfacet
facet normal 0.50000000000001 0.866025403784433 0.0
outer loop
vertex 148.185461478255 -45.6800392280741 4.99999999999997
vertex 151.292063196053 -48.0638185670425 4.93494134445882e-015
vertex 148.185461478255 -45.6800392280741 4.93494134445882e-015
endloop
endfacet
facet normal 0.707106781186549 0.707106781186546 0.0
outer loop
vertex 151.292063196053 -48.0638185670425 4.93494134445882e-015
vertex 148.185461478255 -45.6800392280741 4.99999999999997
vertex 151.292063196053 -48.0638185670425 4.99999999999997
endloop
endfacet
facet normal 0.258819045102531 0.965925826289066 0.0
outer loop
vertex 144.567747154793 -44.1815328905046 4.99999999999997
vertex 148.185461478255 -45.6800392280741 4.93494134445882e-015
vertex 144.567747154793 -44.1815328905046 4.93494134445882e-015
endloop
endfacet
facet normal 0.50000000000001 0.866025403784433 0.0
outer loop
vertex 148.185461478255 -45.6800392280741 4.93494134445882e-015
vertex 144.567747154793 -44.1815328905046 4.99999999999997
vertex 148.185461478255 -45.6800392280741 4.99999999999997
endloop
endfacet
facet normal 0.866025403784438 -0.500000000000002 0.0
outer loop
vertex 153.675842535021 -66.1704202848407 4.93494134445882e-015
vertex 151.292063196053 -69.2770220026389 4.99999999999997
vertex 151.292063196053 -69.2770220026389 4.93494134445882e-015
endloop
endfacet
facet normal 0.70710678118653 -0.707106781186565 0.0
outer loop
vertex 151.292063196053 -69.2770220026389 4.99999999999997
vertex 153.675842535021 -66.1704202848407 4.93494134445882e-015
vertex 153.675842535021 -66.1704202848407 4.99999999999997
endloop
endfacet
facet normal 0.70710678118653 -0.707106781186565 0.0
outer loop
vertex 151.292063196053 -69.2770220026389 4.99999999999997
vertex 148.185461478255 -71.6608013416072 4.93494134445882e-015
vertex 151.292063196053 -69.2770220026389 4.93494134445882e-015
endloop
endfacet
facet normal 0.500000000000006 -0.866025403784435 0.0
outer loop
vertex 148.185461478255 -71.6608013416072 4.93494134445882e-015
vertex 151.292063196053 -69.2770220026389 4.99999999999997
vertex 148.185461478255 -71.6608013416072 4.99999999999997
endloop
endfacet
facet normal -0.965925826289067 -0.258819045102527 0.0
outer loop
vertex 126.196574083919 -62.5527059613784 4.99999999999997
vertex 127.695080421488 -66.1704202848406 4.93494134445882e-015
vertex 127.695080421488 -66.1704202848406 4.99999999999997
endloop
endfacet
facet normal -0.86602540378444 -0.499999999999998 0.0
outer loop
vertex 127.695080421488 -66.1704202848406 4.93494134445882e-015
vertex 126.196574083919 -62.5527059613784 4.99999999999997
vertex 126.196574083919 -62.5527059613784 4.93494134445882e-015
endloop
endfacet
facet normal -2.90718194077099e-016 6.14861672369538e-033 1.0
outer loop
vertex 24.9854614782547 -93.670420284888 12
vertex 15.2854614782546 -83.6704202848882 12
vertex 15.2854614782546 -93.6704202848881 12
endloop
endfacet
facet normal -2.90718194077099e-016 6.14861672369538e-033 1.0
outer loop
vertex 15.2854614782546 -83.6704202848882 12
vertex 24.9854614782547 -93.670420284888 12
vertex 24.9854614782547 -83.6704202848881 12
endloop
endfacet
facet normal -0.86602540378444 -0.499999999999998 0.0
outer loop
vertex 127.695080421488 -66.1704202848406 4.99999999999997
vertex 130.078859760456 -69.2770220026389 4.93494134445882e-015
vertex 130.078859760456 -69.2770220026389 4.99999999999997
endloop
endfacet
facet normal -0.707106781186548 -0.707106781186548 0.0
outer loop
vertex 130.078859760456 -69.2770220026389 4.93494134445882e-015
vertex 127.695080421488 -66.1704202848406 4.99999999999997
vertex 127.695080421488 -66.1704202848406 4.93494134445882e-015
endloop
endfacet
facet normal -1.99492459246559e-013 -1.0 9.02389261936502e-015
outer loop
vertex 155.185461474839 -146.970420285014 2.15318540774945e-011
vertex 15.2854614782239 -146.97042028499 4.99999999999997
vertex 15.2854614782311 -146.97042028499 0.0
endloop
endfacet
facet normal -1.99492459246559e-013 -1.0 9.02389261936502e-015
outer loop
vertex 15.2854614782239 -146.97042028499 4.99999999999997
vertex 155.185461474839 -146.970420285014 2.15318540774945e-011
vertex 155.185461474839 -146.970420285014 4.99916902553382
endloop
endfacet
facet normal 9.30298221046716e-015 -1.0 1.40539810828273e-031
outer loop
vertex 24.9854614782547 -93.670420284888 4.99999999999997
vertex 15.2854614782546 -93.6704202848881 12
vertex 15.2854614782546 -93.6704202848881 4.99999999999997
endloop
endfacet
facet normal 9.30298221046716e-015 -1.0 1.40539810828273e-031
outer loop
vertex 15.2854614782546 -93.6704202848881 12
vertex 24.9854614782547 -93.670420284888 4.99999999999997
vertex 24.9854614782547 -93.670420284888 12
endloop
endfacet
facet normal -1.42704029961382e-012 -0.86602540378443 0.500000000000015
outer loop
vertex 24.9854614782571 -87.4579847195947 7.80000000001945
vertex 15.2854614782577 -87.3181241280835 8.13765333685644
vertex 15.2854614782584 -87.45798471959 7.79999999999997
endloop
endfacet
facet normal -9.93833954942397e-013 -0.965925826289068 0.258819045102523
outer loop
vertex 15.2854614782577 -87.3181241280835 8.13765333685644
vertex 24.9854614782571 -87.4579847195947 7.80000000001945
vertex 24.9854614782564 -87.3181241280882 8.13765333687592
endloop
endfacet
facet normal -2.06694940895572e-012 -0.258819045102527 0.965925826289067
outer loop
vertex 24.9854614782578 -88.3080736217494 7.14770384321475
vertex 15.2854614782591 -87.9704202848882 7.28756443470176
vertex 15.2854614782591 -88.3080736217446 7.14770384319528
endloop
endfacet
facet normal -1.98550068855403e-012 -0.499999999999999 0.866025403784439
outer loop
vertex 15.2854614782591 -87.9704202848882 7.28756443470176
vertex 24.9854614782578 -88.3080736217494 7.14770384321475
vertex 24.9854614782578 -87.970420284893 7.28756443472123
endloop
endfacet
facet normal -0.499999999999995 -0.866025403784441 0.0
outer loop
vertex 133.185461478255 -71.6608013416072 4.99999999999997
vertex 130.078859760456 -69.2770220026389 4.93494134445882e-015
vertex 133.185461478255 -71.6608013416072 4.93494134445882e-015
endloop
endfacet
facet normal -0.707106781186548 -0.707106781186548 0.0
outer loop
vertex 130.078859760456 -69.2770220026389 4.93494134445882e-015
vertex 133.185461478255 -71.6608013416072 4.99999999999997
vertex 130.078859760456 -69.2770220026389 4.99999999999997
endloop
endfacet
facet normal -1.98550068855403e-012 -0.499999999999999 0.866025403784439
outer loop
vertex 15.2854614782591 -87.9704202848882 7.28756443470176
vertex 24.9854614782574 -87.6804707912318 7.51005050635828
vertex 15.2854614782587 -87.680470791227 7.5100505063388
endloop
endfacet
facet normal -1.76669251169404e-012 -0.70710678118653 0.707106781186566
outer loop
vertex 24.9854614782574 -87.6804707912318 7.51005050635828
vertex 15.2854614782591 -87.9704202848882 7.28756443470176
vertex 24.9854614782578 -87.970420284893 7.28756443472123
endloop
endfacet
facet normal 3.01195514472865e-015 1.0 0.0
outer loop
vertex 140.685461478255 -43.6704202848406 4.99999999999997
vertex 144.567747154793 -44.1815328905046 4.93494134445882e-015
vertex 140.685461478255 -43.6704202848406 4.93494134445882e-015
endloop
endfacet
facet normal 0.258819045102531 0.965925826289066 0.0
outer loop
vertex 144.567747154793 -44.1815328905046 4.93494134445882e-015
vertex 140.685461478255 -43.6704202848406 4.99999999999997
vertex 144.567747154793 -44.1815328905046 4.99999999999997
endloop
endfacet
facet normal -1.76669251169404e-012 -0.70710678118653 0.707106781186566
outer loop
vertex 24.9854614782574 -87.6804707912318 7.51005050635828
vertex 15.2854614782584 -87.45798471959 7.79999999999997
vertex 15.2854614782587 -87.680470791227 7.5100505063388
endloop
endfacet
facet normal -1.42704029961382e-012 -0.86602540378443 0.500000000000016
outer loop
vertex 15.2854614782584 -87.45798471959 7.79999999999997
vertex 24.9854614782574 -87.6804707912318 7.51005050635828
vertex 24.9854614782571 -87.4579847195947 7.80000000001945
endloop
endfacet
facet normal 1.0 0.0 0.0
outer loop
vertex 24.9854614782547 -93.670420284888 4.99999999999997
vertex 24.9854614782565 -89.6603697785541 7.51005050635828
vertex 24.9854614782547 -93.670420284888 12
endloop
endfacet
facet normal 1.0 0.0 0.0
outer loop
vertex 24.9854614782565 -89.6603697785541 7.51005050635828
vertex 24.9854614782547 -93.670420284888 4.99999999999997
vertex 24.9854614782571 -89.3704202848929 7.28756443472123
endloop
endfacet
facet normal 1.0 0.0 0.0
outer loop
vertex 24.9854614782571 -89.3704202848929 7.28756443472123
vertex 24.9854614782547 -93.670420284888 4.99999999999997
vertex 24.9854614782574 -89.0327669480364 7.14770384321475
endloop
endfacet
facet normal 1.0 0.0 0.0
outer loop
vertex 24.9854614782574 -89.0327669480364 7.14770384321475
vertex 24.9854614782547 -93.670420284888 4.99999999999997
vertex 24.9854614782547 -83.6704202848881 4.99999999999997
endloop
endfacet
facet normal 1.0 0.0 0.0
outer loop
vertex 24.9854614782547 -93.670420284888 12
vertex 24.9854614782565 -89.6603697785541 7.51005050635828
vertex 24.9854614782558 -89.8828558501911 7.80000000001945
endloop
endfacet
facet normal 1.0 0.0 0.0
outer loop
vertex 24.9854614782547 -93.670420284888 12
vertex 24.9854614782558 -89.8828558501911 7.80000000001945
vertex 24.9854614782551 -90.0227164416976 8.13765333687592
endloop
endfacet
facet normal 1.0 0.0 0.0
outer loop
vertex 24.9854614782547 -93.670420284888 12
vertex 24.9854614782551 -90.0227164416976 8.13765333687592
vertex 24.9854614782544 -90.0704202848929 8.50000000001945
endloop
endfacet
facet normal 1.0 0.0 0.0
outer loop
vertex 24.9854614782574 -89.0327669480364 7.14770384321475
vertex 24.9854614782547 -83.6704202848881 4.99999999999997
vertex 24.9854614782578 -88.6704202848929 7.10000000001945
endloop
endfacet
facet normal 1.0 0.0 0.0
outer loop
vertex 24.9854614782578 -88.6704202848929 7.10000000001945
vertex 24.9854614782547 -83.6704202848881 4.99999999999997
vertex 24.9854614782578 -88.3080736217494 7.14770384321475
endloop
endfacet
facet normal 1.0 0.0 0.0
outer loop
vertex 24.9854614782578 -88.3080736217494 7.14770384321475
vertex 24.9854614782547 -83.6704202848881 4.99999999999997
vertex 24.9854614782578 -87.970420284893 7.28756443472123
endloop
endfacet
facet normal 1.0 0.0 0.0
outer loop
vertex 24.9854614782578 -87.970420284893 7.28756443472123
vertex 24.9854614782547 -83.6704202848881 4.99999999999997
vertex 24.9854614782574 -87.6804707912318 7.51005050635828
endloop
endfacet
facet normal 1.0 0.0 0.0
outer loop
vertex 24.9854614782574 -87.6804707912318 7.51005050635828
vertex 24.9854614782547 -83.6704202848881 4.99999999999997
vertex 24.9854614782571 -87.4579847195947 7.80000000001945
endloop
endfacet
facet normal 1.0 0.0 0.0
outer loop
vertex 24.9854614782571 -87.4579847195947 7.80000000001945
vertex 24.9854614782547 -83.6704202848881 4.99999999999997
vertex 24.9854614782564 -87.3181241280882 8.13765333687592
endloop
endfacet
facet normal 1.0 0.0 0.0
outer loop
vertex 24.9854614782564 -87.3181241280882 8.13765333687592
vertex 24.9854614782547 -83.6704202848881 4.99999999999997
vertex 24.9854614782558 -87.2704202848929 8.50000000001945
endloop
endfacet
facet normal 1.0 0.0 0.0
outer loop
vertex 24.9854614782547 -93.670420284888 12
vertex 24.9854614782522 -89.0327669480364 9.85229615682414
vertex 24.9854614782547 -83.6704202848881 12
endloop
endfacet
facet normal 1.0 0.0 0.0
outer loop
vertex 24.9854614782522 -89.0327669480364 9.85229615682414
vertex 24.9854614782547 -93.670420284888 12
vertex 24.9854614782524 -89.3704202848929 9.71243556531766
endloop
endfacet
facet normal 1.0 0.0 0.0
outer loop
vertex 24.9854614782524 -89.3704202848929 9.71243556531766
vertex 24.9854614782547 -93.670420284888 12
vertex 24.9854614782526 -89.6603697785541 9.48994949368061
endloop
endfacet
facet normal 1.0 0.0 0.0
outer loop
vertex 24.9854614782526 -89.6603697785541 9.48994949368061
vertex 24.9854614782547 -93.670420284888 12
vertex 24.9854614782531 -89.8828558501911 9.20000000001945
endloop
endfacet
facet normal 1.0 0.0 0.0
outer loop
vertex 24.9854614782531 -89.8828558501911 9.20000000001945
vertex 24.9854614782547 -93.670420284888 12
vertex 24.9854614782536 -90.0227164416976 8.86234666316298
endloop
endfacet
facet normal 1.0 0.0 0.0
outer loop
vertex 24.9854614782536 -90.0227164416976 8.86234666316298
vertex 24.9854614782547 -93.670420284888 12
vertex 24.9854614782544 -90.0704202848929 8.50000000001945
endloop
endfacet
facet normal 1.0 0.0 0.0
outer loop
vertex 24.9854614782547 -83.6704202848881 12
vertex 24.9854614782522 -89.0327669480364 9.85229615682414
vertex 24.9854614782524 -88.6704202848929 9.90000000001945
endloop
endfacet
facet normal 1.0 0.0 0.0
outer loop
vertex 24.9854614782547 -83.6704202848881 12
vertex 24.9854614782524 -88.6704202848929 9.90000000001945
vertex 24.9854614782526 -88.3080736217494 9.85229615682414
endloop
endfacet
facet normal 1.0 0.0 0.0
outer loop
vertex 24.9854614782547 -83.6704202848881 12
vertex 24.9854614782526 -88.3080736217494 9.85229615682414
vertex 24.9854614782531 -87.970420284893 9.71243556531766
endloop
endfacet
facet normal 1.0 0.0 0.0
outer loop
vertex 24.9854614782547 -83.6704202848881 12
vertex 24.9854614782531 -87.970420284893 9.71243556531766
vertex 24.9854614782536 -87.6804707912318 9.48994949368061
endloop
endfacet
facet normal 1.0 0.0 0.0
outer loop
vertex 24.9854614782547 -83.6704202848881 12
vertex 24.9854614782536 -87.6804707912318 9.48994949368061
vertex 24.9854614782542 -87.4579847195947 9.20000000001945
endloop
endfacet
facet normal 1.0 0.0 0.0
outer loop
vertex 24.9854614782547 -83.6704202848881 12
vertex 24.9854614782542 -87.4579847195947 9.20000000001945
vertex 24.9854614782551 -87.3181241280882 8.86234666316298
endloop
endfacet
facet normal 1.0 0.0 0.0
outer loop
vertex 24.9854614782547 -83.6704202848881 12
vertex 24.9854614782551 -87.3181241280882 8.86234666316298
vertex 24.9854614782558 -87.2704202848929 8.50000000001945
endloop
endfacet
facet normal 1.0 0.0 0.0
outer loop
vertex 24.9854614782547 -83.6704202848881 12
vertex 24.9854614782558 -87.2704202848929 8.50000000001945
vertex 24.9854614782547 -83.6704202848881 4.99999999999997
endloop
endfacet
facet normal -1.0 0.0 0.0
outer loop
vertex 135.685461478255 -72.69633524754 4.99999999999997
vertex 135.685461478255 -83.6704202848406 4.93494134445882e-015
vertex 135.685461478255 -83.6704202848406 4.99999999999997
endloop
endfacet
facet normal -1.0 0.0 0.0
outer loop
vertex 135.685461478255 -83.6704202848406 4.93494134445882e-015
vertex 135.685461478255 -72.69633524754 4.99999999999997
vertex 135.685461478255 -72.69633524754 4.93494134445882e-015
endloop
endfacet
facet normal -0.382683432365067 -0.923879532511296 0.0
outer loop
vertex 71.9854614782547 -72.6963352475435 4.99999999999997
vertex 69.4854614782546 -71.6608013416108 5.63993296509579e-015
vertex 71.9854614782547 -72.6963352475435 5.63993296509579e-015
endloop
endfacet
facet normal -0.499999999999996 -0.866025403784441 0.0
outer loop
vertex 69.4854614782546 -71.6608013416108 5.63993296509579e-015
vertex 71.9854614782547 -72.6963352475435 4.99999999999997
vertex 69.4854614782546 -71.6608013416108 4.99999999999997
endloop
endfacet
facet normal -1.0 0.0 0.0
outer loop
vertex 71.9854614782547 -72.6963352475435 4.99999999999997
vertex 71.9854614782547 -83.6704202848443 5.63993296509579e-015
vertex 71.9854614782547 -83.6704202848443 4.99999999999997
endloop
endfacet
facet normal -1.0 0.0 0.0
outer loop
vertex 71.9854614782547 -83.6704202848443 5.63993296509579e-015
vertex 71.9854614782547 -72.6963352475435 4.99999999999997
vertex 71.9854614782547 -72.6963352475435 5.63993296509579e-015
endloop
endfacet
facet normal 1.0 0.0 0.0
outer loop
vertex 81.9854614782548 -72.6963352475435 5.63993296509579e-015
vertex 81.9854614782548 -83.6704202848443 4.99999999999997
vertex 81.9854614782548 -83.6704202848443 5.63993296509579e-015
endloop
endfacet
facet normal 1.0 0.0 0.0
outer loop
vertex 81.9854614782548 -83.6704202848443 4.99999999999997
vertex 81.9854614782548 -72.6963352475435 5.63993296509579e-015
vertex 81.9854614782548 -72.6963352475435 4.99999999999997
endloop
endfacet
facet normal 0.500000000000006 -0.866025403784435 0.0
outer loop
vertex 84.4854614782546 -71.6608013416108 4.99999999999997
vertex 81.9854614782548 -72.6963352475435 5.63993296509579e-015
vertex 84.4854614782546 -71.6608013416108 5.63993296509579e-015
endloop
endfacet
facet normal 0.382683432365114 -0.923879532511277 0.0
outer loop
vertex 81.9854614782548 -72.6963352475435 5.63993296509579e-015
vertex 84.4854614782546 -71.6608013416108 4.99999999999997
vertex 81.9854614782548 -72.6963352475435 4.99999999999997
endloop
endfacet
facet normal 0.965925826289066 0.258819045102528 0.0
outer loop
vertex 91.4743488725907 -54.7881346083064 5.63993296509579e-015
vertex 91.9854614782547 -58.6704202848441 4.99999999999997
vertex 91.9854614782547 -58.6704202848441 5.63993296509579e-015
endloop
endfacet
facet normal 1.0 1.51488868225998e-015 0.0
outer loop
vertex 91.9854614782547 -58.6704202848441 4.99999999999997
vertex 91.4743488725907 -54.7881346083064 5.63993296509579e-015
vertex 91.4743488725907 -54.7881346083064 4.99999999999997
endloop
endfacet
facet normal 0.86602540378444 0.499999999999998 0.0
outer loop
vertex 89.9758425350212 -51.1704202848442 5.63993296509579e-015
vertex 91.4743488725907 -54.7881346083064 4.99999999999997
vertex 91.4743488725907 -54.7881346083064 5.63993296509579e-015
endloop
endfacet
facet normal 0.965925826289066 0.258819045102528 0.0
outer loop
vertex 91.4743488725907 -54.7881346083064 4.99999999999997
vertex 89.9758425350212 -51.1704202848442 5.63993296509579e-015
vertex 89.9758425350212 -51.1704202848442 4.99999999999997
endloop
endfacet
facet normal -0.707106781186557 0.707106781186538 0.0
outer loop
vertex 66.3788597604565 -48.0638185670459 4.99999999999997
vertex 69.4854614782546 -45.6800392280776 5.63993296509579e-015
vertex 66.3788597604565 -48.0638185670459 5.63993296509579e-015
endloop
endfacet
facet normal -0.500000000000007 0.866025403784435 0.0
outer loop
vertex 69.4854614782546 -45.6800392280776 5.63993296509579e-015
vertex 66.3788597604565 -48.0638185670459 4.99999999999997
vertex 69.4854614782546 -45.6800392280776 4.99999999999997
endloop
endfacet
facet normal -0.707106781186557 0.707106781186538 0.0
outer loop
vertex 66.3788597604565 -48.0638185670459 4.99999999999997
vertex 63.9950804214881 -51.1704202848442 5.63993296509579e-015
vertex 63.9950804214881 -51.1704202848442 4.99999999999997
endloop
endfacet
facet normal -0.86602540378444 0.499999999999998 0.0
outer loop
vertex 63.9950804214881 -51.1704202848442 5.63993296509579e-015
vertex 66.3788597604565 -48.0638185670459 4.99999999999997
vertex 66.3788597604565 -48.0638185670459 5.63993296509579e-015
endloop
endfacet
facet normal 0.707106781186548 0.707106781186548 0.0
outer loop
vertex 87.5920631960529 -48.0638185670459 5.63993296509579e-015
vertex 89.9758425350212 -51.1704202848442 4.99999999999997
vertex 89.9758425350212 -51.1704202848442 5.63993296509579e-015
endloop
endfacet
facet normal 0.86602540378444 0.499999999999998 0.0
outer loop
vertex 89.9758425350212 -51.1704202848442 4.99999999999997
vertex 87.5920631960529 -48.0638185670459 5.63993296509579e-015
vertex 87.5920631960529 -48.0638185670459 4.99999999999997
endloop
endfacet
facet normal -0.499999999999996 -0.866025403784441 0.0
outer loop
vertex 69.4854614782546 -71.6608013416108 4.99999999999997
vertex 66.3788597604565 -69.2770220026424 5.63993296509579e-015
vertex 69.4854614782546 -71.6608013416108 5.63993296509579e-015
endloop
endfacet
facet normal -0.707106781186557 -0.707106781186538 0.0
outer loop
vertex 66.3788597604565 -69.2770220026424 5.63993296509579e-015
vertex 69.4854614782546 -71.6608013416108 4.99999999999997
vertex 66.3788597604565 -69.2770220026424 4.99999999999997
endloop
endfacet
facet normal -0.86602540378444 -0.499999999999998 0.0
outer loop
vertex 63.9950804214881 -66.1704202848441 4.99999999999997
vertex 66.3788597604565 -69.2770220026424 5.63993296509579e-015
vertex 66.3788597604565 -69.2770220026424 4.99999999999997
endloop
endfacet
facet normal -0.707106781186557 -0.707106781186538 0.0
outer loop
vertex 66.3788597604565 -69.2770220026424 5.63993296509579e-015
vertex 63.9950804214881 -66.1704202848441 4.99999999999997
vertex 63.9950804214881 -66.1704202848441 5.63993296509579e-015
endloop
endfacet
facet normal -0.965925826289067 -0.258819045102527 0.0
outer loop
vertex 62.4965740839187 -62.5527059613819 4.99999999999997
vertex 63.9950804214881 -66.1704202848441 5.63993296509579e-015
vertex 63.9950804214881 -66.1704202848441 4.99999999999997
endloop
endfacet
facet normal -0.86602540378444 -0.499999999999998 0.0
outer loop
vertex 63.9950804214881 -66.1704202848441 5.63993296509579e-015
vertex 62.4965740839187 -62.5527059613819 4.99999999999997
vertex 62.4965740839187 -62.5527059613819 5.63993296509579e-015
endloop
endfacet
facet normal -1.0 1.52379979215562e-015 0.0
outer loop
vertex 61.9854614782547 -58.6704202848441 4.99999999999997
vertex 62.4965740839187 -62.5527059613819 5.63993296509579e-015
vertex 62.4965740839187 -62.5527059613819 4.99999999999997
endloop
endfacet
facet normal -0.965925826289067 -0.258819045102527 0.0
outer loop
vertex 62.4965740839187 -62.5527059613819 5.63993296509579e-015
vertex 61.9854614782547 -58.6704202848441 4.99999999999997
vertex 61.9854614782547 -58.6704202848441 5.63993296509579e-015
endloop
endfacet
facet normal -0.965925826289066 0.258819045102528 0.0
outer loop
vertex 62.4965740839187 -54.7881346083064 4.99999999999997
vertex 61.9854614782547 -58.6704202848441 5.63993296509579e-015
vertex 61.9854614782547 -58.6704202848441 4.99999999999997
endloop
endfacet
facet normal -1.0 1.52379979215562e-015 0.0
outer loop
vertex 61.9854614782547 -58.6704202848441 5.63993296509579e-015
vertex 62.4965740839187 -54.7881346083064 4.99999999999997
vertex 62.4965740839187 -54.7881346083064 5.63993296509579e-015
endloop
endfacet
facet normal 1.0 1.51488868225998e-015 0.0
outer loop
vertex 91.9854614782547 -58.6704202848441 5.63993296509579e-015
vertex 91.4743488725907 -62.5527059613819 4.99999999999997
vertex 91.4743488725907 -62.5527059613819 5.63993296509579e-015
endloop
endfacet
facet normal 0.965925826289068 -0.258819045102523 0.0
outer loop
vertex 91.4743488725907 -62.5527059613819 4.99999999999997
vertex 91.9854614782547 -58.6704202848441 5.63993296509579e-015
vertex 91.9854614782547 -58.6704202848441 4.99999999999997
endloop
endfacet
facet normal 0.965925826289068 -0.258819045102523 0.0
outer loop
vertex 91.4743488725907 -62.5527059613819 5.63993296509579e-015
vertex 89.9758425350212 -66.1704202848442 4.99999999999997
vertex 89.9758425350212 -66.1704202848442 5.63993296509579e-015
endloop
endfacet
facet normal 0.866025403784438 -0.500000000000001 0.0
outer loop
vertex 89.9758425350212 -66.1704202848442 4.99999999999997
vertex 91.4743488725907 -62.5527059613819 5.63993296509579e-015
vertex 91.4743488725907 -62.5527059613819 4.99999999999997
endloop
endfacet
facet normal 0.866025403784438 -0.500000000000001 0.0
outer loop
vertex 89.9758425350212 -66.1704202848442 5.63993296509579e-015
vertex 87.5920631960529 -69.2770220026424 4.99999999999997
vertex 87.5920631960529 -69.2770220026424 5.63993296509579e-015
endloop
endfacet
facet normal 0.707106781186543 -0.707106781186553 0.0
outer loop
vertex 87.5920631960529 -69.2770220026424 4.99999999999997
vertex 89.9758425350212 -66.1704202848442 5.63993296509579e-015
vertex 89.9758425350212 -66.1704202848442 4.99999999999997
endloop
endfacet
facet normal -0.500000000000005 0.866025403784436 0.0
outer loop
vertex 133.185461478255 -45.680039228074 4.99999999999997
vertex 136.803175801717 -44.1815328905046 4.93494134445882e-015
vertex 133.185461478255 -45.680039228074 4.93494134445882e-015
endloop
endfacet
facet normal -0.258819045102518 0.965925826289069 0.0
outer loop
vertex 136.803175801717 -44.1815328905046 4.93494134445882e-015
vertex 133.185461478255 -45.680039228074 4.99999999999997
vertex 136.803175801717 -44.1815328905046 4.99999999999997
endloop
endfacet
facet normal 1.0 0.0 0.0
outer loop
vertex 155.685461478255 -58.6704202848407 4.93494134445882e-015
vertex 155.174348872591 -62.5527059613785 4.99999999999997
vertex 155.174348872591 -62.5527059613785 4.93494134445882e-015
endloop
endfacet
facet normal 0.965925826289072 -0.258819045102506 0.0
outer loop
vertex 155.174348872591 -62.5527059613785 4.99999999999997
vertex 155.685461478255 -58.6704202848407 4.93494134445882e-015
vertex 155.685461478255 -58.6704202848407 4.99999999999997
endloop
endfacet
facet normal 2.34963059482359e-014 1.0 -2.43645103739271e-013
outer loop
vertex 145.685461478255 -83.6704202848406 4.99999999999997
vertex 155.185461477226 -83.6704202848382 3.04344882628982e-012
vertex 145.685461478255 -83.6704202848406 4.93494134445882e-015
endloop
endfacet
facet normal 2.34963059482359e-014 1.0 -2.43645103739271e-013
outer loop
vertex 155.185461477226 -83.6704202848382 3.04344882628982e-012
vertex 145.685461478255 -83.6704202848406 4.99999999999997
vertex 155.185461477226 -83.6704202848358 4.99973090757981
endloop
endfacet
facet normal -0.258819045102518 0.965925826289069 0.0
outer loop
vertex 136.803175801717 -44.1815328905046 4.99999999999997
vertex 140.685461478255 -43.6704202848406 4.93494134445882e-015
vertex 136.803175801717 -44.1815328905046 4.93494134445882e-015
endloop
endfacet
facet normal 3.01195514472865e-015 1.0 0.0
outer loop
vertex 140.685461478255 -43.6704202848406 4.93494134445882e-015
vertex 136.803175801717 -44.1815328905046 4.99999999999997
vertex 140.685461478255 -43.6704202848406 4.99999999999997
endloop
endfacet
facet normal -1.07794398771697e-012 0.707106781186561 0.707106781186534
outer loop
vertex 24.9854614782565 -89.6603697785541 7.51005050635828
vertex 15.2854614782584 -89.3704202848882 7.28756443470176
vertex 15.2854614782578 -89.6603697785494 7.5100505063388
endloop
endfacet
facet normal -1.49715119407674e-012 0.499999999999993 0.866025403784442
outer loop
vertex 15.2854614782584 -89.3704202848882 7.28756443470176
vertex 24.9854614782565 -89.6603697785541 7.51005050635828
vertex 24.9854614782571 -89.3704202848929 7.28756443472123
endloop
endfacet
facet normal -1.81443767169376e-012 0.258819045102515 0.96592582628907
outer loop
vertex 24.9854614782574 -89.0327669480364 7.14770384321475
vertex 15.2854614782591 -88.6704202848882 7.09999999999997
vertex 15.2854614782587 -89.0327669480317 7.14770384319528
endloop
endfacet
facet normal -2.00844196862759e-012 -6.8615546196471e-015 1.0
outer loop
vertex 15.2854614782591 -88.6704202848882 7.09999999999997
vertex 24.9854614782574 -89.0327669480364 7.14770384321475
vertex 24.9854614782578 -88.6704202848929 7.10000000001945
endloop
endfacet
facet normal 0.707106781186543 -0.707106781186553 0.0
outer loop
vertex 87.5920631960529 -69.2770220026424 4.99999999999997
vertex 84.4854614782546 -71.6608013416108 5.63993296509579e-015
vertex 87.5920631960529 -69.2770220026424 5.63993296509579e-015
endloop
endfacet
facet normal 0.500000000000006 -0.866025403784435 0.0
outer loop
vertex 84.4854614782546 -71.6608013416108 5.63993296509579e-015
vertex 87.5920631960529 -69.2770220026424 4.99999999999997
vertex 84.4854614782546 -71.6608013416108 4.99999999999997
endloop
endfacet
facet normal 4.93048666080431e-013 1.0 1.59508867132074e-015
outer loop
vertex 15.2854614782557 -90.0704202848881 8.49999999999997
vertex 24.9854614782551 -90.0227164416976 8.13765333687592
vertex 15.2854614782564 -90.0227164416928 8.13765333685644
endloop
endfacet
facet normal -4.5691054530381e-014 0.965925826289071 0.258819045102511
outer loop
vertex 24.9854614782551 -90.0227164416976 8.13765333687592
vertex 15.2854614782557 -90.0704202848881 8.49999999999997
vertex 24.9854614782544 -90.0704202848929 8.50000000001945
endloop
endfacet
facet normal 9.9383412379255e-013 0.965925826289071 -0.258819045102512
outer loop
vertex 15.285461478255 -90.0227164416928 8.8623466631435
vertex 24.9854614782544 -90.0704202848929 8.50000000001945
vertex 15.2854614782557 -90.0704202848881 8.49999999999997
endloop
endfacet
facet normal 4.93048666080436e-013 1.0 -1.06042207758203e-015
outer loop
vertex 24.9854614782544 -90.0704202848929 8.50000000001945
vertex 15.285461478255 -90.0227164416928 8.8623466631435
vertex 24.9854614782536 -90.0227164416976 8.86234666316298
endloop
endfacet
facet normal -1.4971511940767e-012 0.500000000000019 0.866025403784428
outer loop
vertex 24.9854614782571 -89.3704202848929 7.28756443472123
vertex 15.2854614782587 -89.0327669480317 7.14770384319528
vertex 15.2854614782584 -89.3704202848882 7.28756443470176
endloop
endfacet
facet normal -1.81443767169376e-012 0.258819045102517 0.965925826289069
outer loop
vertex 15.2854614782587 -89.0327669480317 7.14770384319528
vertex 24.9854614782571 -89.3704202848929 7.28756443472123
vertex 24.9854614782574 -89.0327669480364 7.14770384321475
endloop
endfacet
facet normal -0.707106781186544 0.707106781186551 0.0
outer loop
vertex 130.078859760457 -48.0638185670423 4.99999999999997
vertex 127.695080421488 -51.1704202848406 4.93494134445882e-015
vertex 127.695080421488 -51.1704202848406 4.99999999999997
endloop
endfacet
facet normal -0.86602540378443 0.500000000000014 0.0
outer loop
vertex 127.695080421488 -51.1704202848406 4.93494134445882e-015
vertex 130.078859760457 -48.0638185670423 4.99999999999997
vertex 130.078859760457 -48.0638185670423 4.93494134445882e-015
endloop
endfacet
facet normal 0.500000000000002 0.866025403784438 0.0
outer loop
vertex 84.4854614782546 -45.6800392280776 4.99999999999997
vertex 87.5920631960529 -48.0638185670459 5.63993296509579e-015
vertex 84.4854614782546 -45.6800392280776 5.63993296509579e-015
endloop
endfacet
facet normal 0.707106781186548 0.707106781186548 0.0
outer loop
vertex 87.5920631960529 -48.0638185670459 5.63993296509579e-015
vertex 84.4854614782546 -45.6800392280776 4.99999999999997
vertex 87.5920631960529 -48.0638185670459 4.99999999999997
endloop
endfacet
facet normal -6.88975051229581e-014 1.0 3.95330025810182e-029
outer loop
vertex 81.9854614782548 -83.6704202848443 5.63993296509579e-015
vertex 135.685461478255 -83.6704202848406 4.99999999999997
vertex 135.685461478255 -83.6704202848406 4.93494134445882e-015
endloop
endfacet
facet normal -6.88975051229581e-014 1.0 3.95330025810182e-029
outer loop
vertex 135.685461478255 -83.6704202848406 4.99999999999997
vertex 81.9854614782548 -83.6704202848443 5.63993296509579e-015
vertex 81.9854614782548 -83.6704202848443 4.99999999999997
endloop
endfacet
facet normal -4.5691054530407e-014 0.965925826289068 0.258819045102523
outer loop
vertex 15.2854614782564 -90.0227164416928 8.13765333685644
vertex 24.9854614782558 -89.8828558501911 7.80000000001945
vertex 15.2854614782571 -89.8828558501864 7.79999999999997
endloop
endfacet
facet normal -5.83029055693197e-013 0.866025403784454 0.499999999999974
outer loop
vertex 24.9854614782558 -89.8828558501911 7.80000000001945
vertex 15.2854614782564 -90.0227164416928 8.13765333685644
vertex 24.9854614782551 -90.0227164416976 8.13765333687592
endloop
endfacet
facet normal 0.965925826289072 -0.258819045102506 0.0
outer loop
vertex 155.174348872591 -62.5527059613785 4.93494134445882e-015
vertex 153.675842535021 -66.1704202848407 4.99999999999997
vertex 153.675842535021 -66.1704202848407 4.93494134445882e-015
endloop
endfacet
facet normal 0.866025403784438 -0.500000000000002 0.0
outer loop
vertex 153.675842535021 -66.1704202848407 4.99999999999997
vertex 155.174348872591 -62.5527059613785 4.93494134445882e-015
vertex 155.174348872591 -62.5527059613785 4.99999999999997
endloop
endfacet
facet normal -5.83029055693193e-013 0.866025403784454 0.499999999999973
outer loop
vertex 15.2854614782571 -89.8828558501864 7.79999999999997
vertex 24.9854614782565 -89.6603697785541 7.51005050635828
vertex 15.2854614782578 -89.6603697785494 7.5100505063388
endloop
endfacet
facet normal -1.07794398771697e-012 0.707106781186561 0.707106781186534
outer loop
vertex 24.9854614782565 -89.6603697785541 7.51005050635828
vertex 15.2854614782571 -89.8828558501864 7.79999999999997
vertex 24.9854614782558 -89.8828558501911 7.80000000001945
endloop
endfacet
facet normal -2.0084419686276e-012 -9.2408209617872e-015 1.0
outer loop
vertex 24.9854614782578 -88.6704202848929 7.10000000001945
vertex 15.2854614782591 -88.3080736217446 7.14770384319528
vertex 15.2854614782591 -88.6704202848882 7.09999999999997
endloop
endfacet
facet normal -2.06694940895572e-012 -0.25881904510252 0.965925826289068
outer loop
vertex 15.2854614782591 -88.3080736217446 7.14770384319528
vertex 24.9854614782578 -88.6704202848929 7.10000000001945
vertex 24.9854614782578 -88.3080736217494 7.14770384321475
endloop
endfacet
facet normal 1.0 -9.76103081537731e-011 2.47142035287098e-023
outer loop
vertex 155.185461479511 -98.7704202868655 7.47351257155345e-012
vertex 155.185461474839 -146.970420285014 4.99916902553382
vertex 155.185461474839 -146.970420285014 2.15318540774945e-011
endloop
endfacet
facet normal 1.0 -9.76103081537731e-011 2.47142035287098e-023
outer loop
vertex 155.185461474839 -146.970420285014 4.99916902553382
vertex 155.185461479511 -98.7704202868655 7.47351257155345e-012
vertex 155.185461479511 -98.7704202868631 4.99959776017557
endloop
endfacet
facet normal 1.0 -4.23510821728456e-010 -1.92914761644382e-010
outer loop
vertex 149.985461480749 -93.5704202848602 9.82914755275211e-010
vertex 149.985461479511 -98.7704202846608 4.99959776117873
vertex 149.985461479511 -98.7704202846633 1.01063027312234e-009
endloop
endfacet
facet normal 1.0 -4.23510821728456e-010 -1.92914761644382e-010
outer loop
vertex 149.985461479511 -98.7704202846608 4.99959776117873
vertex 149.985461480749 -93.5704202848602 9.82914755275211e-010
vertex 149.985461482678 -93.5704202835502 4.99905289014575
endloop
endfacet
facet normal -4.235108216779e-010 -1.0 2.62062878454693e-010
outer loop
vertex 155.185461482678 -93.5704202857524 4.99905288914259
vertex 149.985461480749 -93.5704202848602 9.82914755275211e-010
vertex 155.185461480749 -93.5704202870625 -2.02420052755761e-011
endloop
endfacet
facet normal -4.235108216779e-010 -1.0 2.62062878454693e-010
outer loop
vertex 149.985461480749 -93.5704202848602 9.82914755275211e-010
vertex 155.185461482678 -93.5704202857524 4.99905288914259
vertex 149.985461482678 -93.5704202835502 4.99905289014575
endloop
endfacet
facet normal 4.23510821728362e-010 1.0 -4.87329412844497e-013
outer loop
vertex 149.985461479511 -98.7704202846633 1.01063027312234e-009
vertex 155.185461479511 -98.7704202868631 4.99959776017557
vertex 155.185461479511 -98.7704202868655 7.47351257155345e-012
endloop
endfacet
facet normal 4.23510821728362e-010 1.0 -4.87329412844497e-013
outer loop
vertex 155.185461479511 -98.7704202868631 4.99959776017557
vertex 149.985461479511 -98.7704202846633 1.01063027312234e-009
vertex 149.985461479511 -98.7704202846608 4.99959776117873
endloop
endfacet
endsolid TronXY_X1_Control_Box_and_base_V2
