solid TronXY_X1_Control_Box_and_base_V2
facet normal 1.0 -5.66083726639303e-013 4.3202808836844e-013
outer loop
vertex 314.854330282359 -148.37245952366 3.89678511942335e-011
vertex 314.854203284265 -81.8724612781332 9.99999999842592
vertex 314.854203284223 -148.372460551828 9.9999999984259
endloop
endfacet
facet normal 1.0 -5.66083726639303e-013 4.3202808836844e-013
outer loop
vertex 314.854203284265 -81.8724612781332 9.99999999842592
vertex 314.854330282359 -148.37245952366 3.89678511942335e-011
vertex 314.854330282388 -81.8724602499658 3.89047743129536e-011
endloop
endfacet
facet normal -2.99959463803781e-012 -0.258819045102531 0.965925826289065
outer loop
vertex 214.97591755351 -86.5101135867654 7.14770384316542
vertex 224.775917553505 -86.1724602499133 7.28756443470175
vertex 214.975917553509 -86.1724602499089 7.28756443467191
endloop
endfacet
facet normal -2.81026037969607e-012 -0.49999999999999 0.866025403784445
outer loop
vertex 224.775917553505 -86.1724602499133 7.28756443470175
vertex 214.97591755351 -86.5101135867654 7.14770384316542
vertex 224.775917553505 -86.5101135867698 7.14770384319527
endloop
endfacet
facet normal -2.81026037969604e-012 -0.500000000000006 0.866025403784435
outer loop
vertex 214.975917553509 -86.1724602499089 7.28756443467191
vertex 224.775917553504 -85.8825107562522 7.5100505063388
vertex 214.975917553509 -85.8825107562477 7.51005050630895
endloop
endfacet
facet normal -2.4294109236823e-012 -0.70710678118655 0.707106781186545
outer loop
vertex 224.775917553504 -85.8825107562522 7.5100505063388
vertex 214.975917553509 -86.1724602499089 7.28756443467191
vertex 224.775917553505 -86.1724602499133 7.28756443470175
endloop
endfacet
facet normal -2.4294109236823e-012 -0.70710678118655 0.707106781186545
outer loop
vertex 224.775917553504 -85.8825107562522 7.5100505063388
vertex 214.975917553508 -85.6600246846107 7.79999999997012
vertex 214.975917553509 -85.8825107562477 7.51005050630895
endloop
endfacet
facet normal -1.88300123246766e-012 -0.866025403784434 0.500000000000009
outer loop
vertex 214.975917553508 -85.6600246846107 7.79999999997012
vertex 224.775917553504 -85.8825107562522 7.5100505063388
vertex 224.775917553503 -85.6600246846151 7.79999999999996
endloop
endfacet
facet normal -4.51194553214941e-013 -1.0 -4.45555494782329e-015
outer loop
vertex 224.775917553501 -85.4724602499133 8.49999999999996
vertex 214.975917553505 -85.5201640931042 8.86234666311365
vertex 214.975917553506 -85.4724602499089 8.49999999997012
endloop
endfacet
facet normal 3.36628138575064e-013 -0.965925826289071 -0.258819045102511
outer loop
vertex 214.975917553505 -85.5201640931042 8.86234666311365
vertex 224.775917553501 -85.4724602499133 8.49999999999996
vertex 224.7759175535 -85.5201640931086 8.86234666314349
endloop
endfacet
facet normal 3.36628138575099e-013 -0.965925826289068 -0.258819045102522
outer loop
vertex 224.7759175535 -85.5201640931086 8.86234666314349
vertex 214.975917553504 -85.6600246846107 9.19999999997012
vertex 214.975917553505 -85.5201640931042 8.86234666311365
endloop
endfacet
facet normal 1.10151018421448e-012 -0.866025403784446 -0.499999999999987
outer loop
vertex 214.975917553504 -85.6600246846107 9.19999999997012
vertex 224.7759175535 -85.5201640931086 8.86234666314349
vertex 224.775917553499 -85.6600246846151 9.19999999999996
endloop
endfacet
facet normal 1.10151018421448e-012 -0.866025403784446 -0.499999999999987
outer loop
vertex 224.775917553499 -85.6600246846151 9.19999999999996
vertex 214.975917553503 -85.8825107562477 9.48994949363128
vertex 214.975917553504 -85.6600246846107 9.19999999997012
endloop
endfacet
facet normal 1.79132571456177e-012 -0.707106781186545 -0.70710678118655
outer loop
vertex 214.975917553503 -85.8825107562477 9.48994949363128
vertex 224.775917553499 -85.6600246846151 9.19999999999996
vertex 224.775917553498 -85.8825107562522 9.48994949366113
endloop
endfacet
facet normal 1.79132571456177e-012 -0.707106781186545 -0.70710678118655
outer loop
vertex 214.975917553503 -85.8825107562477 9.48994949363128
vertex 224.775917553497 -86.1724602499133 9.71243556529818
vertex 214.975917553502 -86.1724602499089 9.71243556526833
endloop
endfacet
facet normal 2.3590655145664e-012 -0.499999999999984 -0.866025403784448
outer loop
vertex 224.775917553497 -86.1724602499133 9.71243556529818
vertex 214.975917553503 -85.8825107562477 9.48994949363128
vertex 224.775917553498 -85.8825107562522 9.48994949366113
endloop
endfacet
facet normal 2.35906551456638e-012 -0.499999999999991 -0.866025403784444
outer loop
vertex 214.975917553502 -86.1724602499089 9.71243556526833
vertex 224.775917553497 -86.5101135867698 9.85229615680466
vertex 214.975917553502 -86.5101135867654 9.85229615677481
endloop
endfacet
facet normal 2.76603905420815e-012 -0.25881904510252 -0.965925826289069
outer loop
vertex 224.775917553497 -86.5101135867698 9.85229615680466
vertex 214.975917553502 -86.1724602499089 9.71243556526833
vertex 224.775917553497 -86.1724602499133 9.71243556529818
endloop
endfacet
facet normal 2.76603905420816e-012 -0.258819045102517 -0.96592582628907
outer loop
vertex 214.975917553502 -86.5101135867654 9.85229615677481
vertex 224.775917553496 -86.8724602499133 9.89999999999996
vertex 214.975917553501 -86.8724602499089 9.89999999997011
endloop
endfacet
facet normal 2.98451141791188e-012 -3.89415502439746e-015 -1.0
outer loop
vertex 224.775917553496 -86.8724602499133 9.89999999999996
vertex 214.975917553502 -86.5101135867654 9.85229615677481
vertex 224.775917553497 -86.5101135867698 9.85229615680466
endloop
endfacet
facet normal 2.98451141791188e-012 -3.89415502439746e-015 -1.0
outer loop
vertex 224.775917553496 -86.8724602499133 9.89999999999996
vertex 214.975917553501 -87.2348069130525 9.85229615677481
vertex 214.975917553501 -86.8724602499089 9.89999999997011
endloop
endfacet
facet normal 2.99959422004142e-012 0.258819045102508 -0.965925826289072
outer loop
vertex 214.975917553501 -87.2348069130525 9.85229615677481
vertex 224.775917553496 -86.8724602499133 9.89999999999996
vertex 224.775917553496 -87.2348069130569 9.85229615680466
endloop
endfacet
facet normal 2.99959422004141e-012 0.258819045102531 -0.965925826289065
outer loop
vertex 224.775917553496 -87.2348069130569 9.85229615680466
vertex 214.975917553502 -87.5724602499089 9.71243556526833
vertex 214.975917553501 -87.2348069130525 9.85229615677481
endloop
endfacet
facet normal 2.81026005378846e-012 0.49999999999999 -0.866025403784445
outer loop
vertex 214.975917553502 -87.5724602499089 9.71243556526833
vertex 224.775917553496 -87.2348069130569 9.85229615680466
vertex 224.775917553497 -87.5724602499134 9.71243556529818
endloop
endfacet
facet normal 2.81026005378844e-012 0.500000000000006 -0.866025403784435
outer loop
vertex 224.775917553497 -87.5724602499134 9.71243556529818
vertex 214.975917553502 -87.8624097435701 9.48994949363128
vertex 214.975917553502 -87.5724602499089 9.71243556526833
endloop
endfacet
facet normal 2.42941085162488e-012 0.70710678118655 -0.707106781186545
outer loop
vertex 214.975917553502 -87.8624097435701 9.48994949363128
vertex 224.775917553497 -87.5724602499134 9.71243556529818
vertex 224.775917553497 -87.8624097435745 9.48994949366113
endloop
endfacet
facet normal 2.42941085162488e-012 0.70710678118655 -0.707106781186545
outer loop
vertex 214.975917553502 -87.8624097435701 9.48994949363128
vertex 224.775917553498 -88.0848958152116 9.19999999999996
vertex 214.975917553503 -88.0848958152071 9.19999999997012
endloop
endfacet
facet normal 1.88300116041023e-012 0.866025403784434 -0.500000000000009
outer loop
vertex 224.775917553498 -88.0848958152116 9.19999999999996
vertex 214.975917553502 -87.8624097435701 9.48994949363128
vertex 224.775917553497 -87.8624097435745 9.48994949366113
endloop
endfacet
facet normal 1.88300116041016e-012 0.866025403784448 -0.499999999999984
outer loop
vertex 214.975917553503 -88.0848958152071 9.19999999997012
vertex 224.775917553499 -88.2247564067181 8.86234666314349
vertex 214.975917553504 -88.2247564067136 8.86234666311365
endloop
endfacet
facet normal 1.20826871219302e-012 0.965925826289068 -0.258819045102523
outer loop
vertex 224.775917553499 -88.2247564067181 8.86234666314349
vertex 214.975917553503 -88.0848958152071 9.19999999997012
vertex 224.775917553498 -88.0848958152116 9.19999999999996
endloop
endfacet
facet normal 1.20826871219298e-012 0.965925826289071 -0.258819045102509
outer loop
vertex 214.975917553504 -88.2247564067136 8.86234666311365
vertex 224.7759175535 -88.2724602499133 8.49999999999996
vertex 214.975917553505 -88.272460249909 8.49999999997012
endloop
endfacet
facet normal 4.51194553214969e-013 1.0 -4.9991326514581e-015
outer loop
vertex 224.7759175535 -88.2724602499133 8.49999999999996
vertex 214.975917553504 -88.2247564067136 8.86234666311365
vertex 224.775917553499 -88.2247564067181 8.86234666314349
endloop
endfacet
facet normal 4.51194553214941e-013 1.0 4.45555494782329e-015
outer loop
vertex 214.975917553505 -88.272460249909 8.49999999997012
vertex 224.775917553501 -88.2247564067181 8.13765333685643
vertex 214.975917553506 -88.2247564067136 8.13765333682659
endloop
endfacet
facet normal -3.36627868584366e-013 0.965925826289071 0.258819045102511
outer loop
vertex 224.775917553501 -88.2247564067181 8.13765333685643
vertex 214.975917553505 -88.272460249909 8.49999999997012
vertex 224.7759175535 -88.2724602499133 8.49999999999996
endloop
endfacet
facet normal -1.88300123246759e-012 -0.866025403784448 0.499999999999984
outer loop
vertex 224.775917553503 -85.6600246846151 7.79999999999996
vertex 214.975917553507 -85.5201640931042 8.13765333682659
vertex 214.975917553508 -85.6600246846107 7.79999999997012
endloop
endfacet
facet normal -1.20826871219302e-012 -0.965925826289068 0.258819045102523
outer loop
vertex 214.975917553507 -85.5201640931042 8.13765333682659
vertex 224.775917553503 -85.6600246846151 7.79999999999996
vertex 224.775917553502 -85.5201640931086 8.13765333685643
endloop
endfacet
facet normal -1.20826871219298e-012 -0.965925826289072 0.258819045102509
outer loop
vertex 224.775917553502 -85.5201640931086 8.13765333685643
vertex 214.975917553506 -85.4724602499089 8.49999999997012
vertex 214.975917553507 -85.5201640931042 8.13765333682659
endloop
endfacet
facet normal -4.51194553214969e-013 -1.0 5.00804376135375e-015
outer loop
vertex 214.975917553506 -85.4724602499089 8.49999999997012
vertex 224.775917553502 -85.5201640931086 8.13765333685643
vertex 224.775917553501 -85.4724602499133 8.49999999999996
endloop
endfacet
facet normal -2.98451157761124e-012 -3.91197724418923e-015 1.0
outer loop
vertex 224.775917553505 -86.8724602499133 7.09999999999997
vertex 214.97591755351 -86.5101135867654 7.14770384316542
vertex 214.97591755351 -86.8724602499089 7.09999999997012
endloop
endfacet
facet normal -2.99959463803781e-012 -0.258819045102531 0.965925826289065
outer loop
vertex 214.97591755351 -86.5101135867654 7.14770384316542
vertex 224.775917553505 -86.8724602499133 7.09999999999997
vertex 224.775917553505 -86.5101135867698 7.14770384319527
endloop
endfacet
facet normal -2.76603894912988e-012 0.258819045102518 0.965925826289069
outer loop
vertex 224.775917553505 -87.2348069130569 7.14770384319527
vertex 214.97591755351 -86.8724602499089 7.09999999997012
vertex 214.975917553509 -87.2348069130525 7.14770384316542
endloop
endfacet
facet normal -2.98451157761124e-012 3.87633280460617e-015 1.0
outer loop
vertex 214.97591755351 -86.8724602499089 7.09999999997012
vertex 224.775917553505 -87.2348069130569 7.14770384319527
vertex 224.775917553505 -86.8724602499133 7.09999999999997
endloop
endfacet
facet normal -1.10150991422378e-012 0.866025403784446 0.499999999999987
outer loop
vertex 214.975917553507 -88.0848958152071 7.79999999997012
vertex 224.775917553503 -87.8624097435745 7.5100505063388
vertex 214.975917553508 -87.8624097435701 7.51005050630895
endloop
endfacet
facet normal -1.79132607199753e-012 0.707106781186543 0.707106781186552
outer loop
vertex 224.775917553503 -87.8624097435745 7.5100505063388
vertex 214.975917553507 -88.0848958152071 7.79999999997012
vertex 224.775917553502 -88.0848958152116 7.79999999999996
endloop
endfacet
facet normal -1.79132607199753e-012 0.707106781186543 0.707106781186552
outer loop
vertex 224.775917553503 -87.8624097435745 7.5100505063388
vertex 214.975917553509 -87.5724602499089 7.28756443467191
vertex 214.975917553508 -87.8624097435701 7.51005050630895
endloop
endfacet
facet normal -2.35906569931332e-012 0.499999999999984 0.866025403784448
outer loop
vertex 214.975917553509 -87.5724602499089 7.28756443467191
vertex 224.775917553503 -87.8624097435745 7.5100505063388
vertex 224.775917553504 -87.5724602499134 7.28756443470175
endloop
endfacet
facet normal -2.3590656993133e-012 0.499999999999991 0.866025403784444
outer loop
vertex 224.775917553504 -87.5724602499134 7.28756443470175
vertex 214.975917553509 -87.2348069130525 7.14770384316542
vertex 214.975917553509 -87.5724602499089 7.28756443467191
endloop
endfacet
facet normal -2.76603894912988e-012 0.258819045102521 0.965925826289068
outer loop
vertex 214.975917553509 -87.2348069130525 7.14770384316542
vertex 224.775917553504 -87.5724602499134 7.28756443470175
vertex 224.775917553505 -87.2348069130569 7.14770384319527
endloop
endfacet
facet normal -3.36627868584401e-013 0.965925826289068 0.258819045102522
outer loop
vertex 214.975917553506 -88.2247564067136 8.13765333682659
vertex 224.775917553502 -88.0848958152116 7.79999999999996
vertex 214.975917553507 -88.0848958152071 7.79999999997012
endloop
endfacet
facet normal -1.10150991422378e-012 0.866025403784446 0.499999999999987
outer loop
vertex 224.775917553502 -88.0848958152116 7.79999999999996
vertex 214.975917553506 -88.2247564067136 8.13765333682659
vertex 224.775917553501 -88.2247564067181 8.13765333685643
endloop
endfacet
facet normal -0.999999999999784 2.01250188493523e-013 6.58138416208038e-007
outer loop
vertex 225.175914436674 -148.372459523641 4.9986843933487
vertex 225.175911146848 -145.172460250097 2.51175474451893e-011
vertex 225.175911146848 -148.372459523642 2.51753005564714e-011
endloop
endfacet
facet normal -0.999999999999784 2.01250188493523e-013 6.58138416208038e-007
outer loop
vertex 225.175911146848 -145.172460250097 2.51175474451893e-011
vertex 225.175914436674 -148.372459523641 4.9986843933487
vertex 225.175914436674 -145.172460250097 4.99868439334864
endloop
endfacet
facet normal -2.01250176615582e-013 -1.0 1.8047851070947e-014
outer loop
vertex 314.854203284223 -148.372460551828 9.9999999984259
vertex 228.075887709945 -148.372459289202 4.99782006311135
vertex 314.854330282359 -148.37245952366 3.89678511942335e-011
endloop
endfacet
facet normal -2.01250176615582e-013 -1.0 1.8047851070947e-014
outer loop
vertex 228.075887709945 -148.372459289202 4.99782006311135
vertex 314.854203284223 -148.372460551828 9.9999999984259
vertex 228.07576071182 -148.372460317371 9.99782006149839
endloop
endfacet
facet normal -2.01250176615582e-013 -1.0 1.8047851070947e-014
outer loop
vertex 314.854330282359 -148.37245952366 3.89678511942335e-011
vertex 225.175914436674 -148.372459523641 4.9986843933487
vertex 225.175911146848 -148.372459523642 2.51753005564714e-011
endloop
endfacet
facet normal -2.01250176615582e-013 -1.0 1.8047851070947e-014
outer loop
vertex 225.175914436674 -148.372459523641 4.9986843933487
vertex 314.854330282359 -148.37245952366 3.89678511942335e-011
vertex 228.075887709945 -148.372459289202 4.99782006311135
endloop
endfacet
facet normal -2.53996251298054e-005 -2.05633663384852e-007 0.999999999677408
outer loop
vertex 314.854203284223 -148.372460551828 9.9999999984259
vertex 228.07576071182 -145.37246055181 9.99782006149839
vertex 228.07576071182 -148.372460317371 9.99782006149839
endloop
endfacet
facet normal -2.53996251298054e-005 -2.05633663384852e-007 0.999999999677408
outer loop
vertex 228.07576071182 -145.37246055181 9.99782006149839
vertex 314.854203284223 -148.372460551828 9.9999999984259
vertex 311.854203284548 -145.372460551827 9.99997799301895
endloop
endfacet
facet normal -2.53996251298054e-005 -2.05633663384852e-007 0.999999999677408
outer loop
vertex 311.854203284548 -145.372460551827 9.99997799301895
vertex 314.854203284265 -81.8724612781332 9.99999999842592
vertex 311.854203284264 -81.8724612781316 9.99999999842527
endloop
endfacet
facet normal -2.53996251298054e-005 -2.05633663384852e-007 0.999999999677408
outer loop
vertex 314.854203284265 -81.8724612781332 9.99999999842592
vertex 311.854203284548 -145.372460551827 9.99997799301895
vertex 314.854203284223 -148.372460551828 9.9999999984259
endloop
endfacet
facet normal -0.99999999967743 4.3398242896662e-012 -2.5399625129805e-005
outer loop
vertex 311.854203284264 -81.8724612781316 9.99999999842527
vertex 311.854330282674 -145.372459523659 4.99997799463191
vertex 311.854203284548 -145.372460551827 9.99997799301895
endloop
endfacet
facet normal -0.99999999967743 4.3398242896662e-012 -2.5399625129805e-005
outer loop
vertex 311.854330282674 -145.372459523659 4.99997799463191
vertex 311.854203284264 -81.8724612781316 9.99999999842527
vertex 311.85433028239 -81.8724602499632 5.00000000003823
endloop
endfacet
facet normal -5.08928498960867e-012 0.999999999999979 2.05633663321918e-007
outer loop
vertex 228.07576071182 -145.37246055181 9.99782006149839
vertex 311.854330282674 -145.372459523659 4.99997799463191
vertex 228.075887709945 -145.372459523642 4.99782006311135
endloop
endfacet
facet normal -5.08928498960867e-012 0.999999999999979 2.05633663321918e-007
outer loop
vertex 311.854330282674 -145.372459523659 4.99997799463191
vertex 228.07576071182 -145.37246055181 9.99782006149839
vertex 311.854203284548 -145.372460551827 9.99997799301895
endloop
endfacet
facet normal -0.99999999967743 -0.0 -2.53996251298059e-005
outer loop
vertex 228.07576071182 -145.37246055181 9.99782006149839
vertex 228.075887709945 -148.372459289202 4.99782006311135
vertex 228.07576071182 -148.372460317371 9.99782006149839
endloop
endfacet
facet normal -0.99999999967743 -0.0 -2.53996251298059e-005
outer loop
vertex 228.075887709945 -148.372459289202 4.99782006311135
vertex 228.07576071182 -145.37246055181 9.99782006149839
vertex 228.075887709945 -145.372459523642 4.99782006311135
endloop
endfacet
facet normal 0.0 -1.0 0.0
outer loop
vertex 224.775917553505 -91.8724602499128 12
vertex 214.975917553505 -91.8724602499129 4.99999999999996
vertex 224.775917553505 -91.8724602499128 4.99999999999996
endloop
endfacet
facet normal 0.0 -1.0 0.0
outer loop
vertex 214.975917553505 -91.8724602499129 4.99999999999996
vertex 224.775917553505 -91.8724602499128 12
vertex 214.975917553505 -91.8724602499129 12
endloop
endfacet
facet normal 0.0 0.0 1.0
outer loop
vertex 224.775917553505 -91.8724602499128 12
vertex 214.975917553505 -81.8724602499129 12
vertex 214.975917553505 -91.8724602499129 12
endloop
endfacet
facet normal 0.0 0.0 1.0
outer loop
vertex 214.975917553505 -81.8724602499129 12
vertex 224.775917553505 -91.8724602499128 12
vertex 224.775917553505 -81.8724602499128 12
endloop
endfacet
facet normal -1.0 0.0 0.0
outer loop
vertex 214.975917553505 -91.8724602499129 12
vertex 214.975917553502 -87.8624097435701 9.48994949363128
vertex 214.975917553505 -91.8724602499129 4.99999999999996
endloop
endfacet
facet normal -1.0 0.0 0.0
outer loop
vertex 214.975917553502 -87.8624097435701 9.48994949363128
vertex 214.975917553505 -91.8724602499129 12
vertex 214.975917553502 -87.5724602499089 9.71243556526833
endloop
endfacet
facet normal -1.0 0.0 0.0
outer loop
vertex 214.975917553502 -87.5724602499089 9.71243556526833
vertex 214.975917553505 -91.8724602499129 12
vertex 214.975917553501 -87.2348069130525 9.85229615677481
endloop
endfacet
facet normal -1.0 0.0 0.0
outer loop
vertex 214.975917553501 -87.2348069130525 9.85229615677481
vertex 214.975917553505 -91.8724602499129 12
vertex 214.975917553505 -81.8724602499129 12
endloop
endfacet
facet normal -1.0 0.0 0.0
outer loop
vertex 214.975917553505 -91.8724602499129 4.99999999999996
vertex 214.975917553502 -87.8624097435701 9.48994949363128
vertex 214.975917553503 -88.0848958152071 9.19999999997012
endloop
endfacet
facet normal -1.0 0.0 0.0
outer loop
vertex 214.975917553505 -91.8724602499129 4.99999999999996
vertex 214.975917553503 -88.0848958152071 9.19999999997012
vertex 214.975917553504 -88.2247564067136 8.86234666311365
endloop
endfacet
facet normal -1.0 0.0 0.0
outer loop
vertex 214.975917553505 -91.8724602499129 4.99999999999996
vertex 214.975917553504 -88.2247564067136 8.86234666311365
vertex 214.975917553505 -88.272460249909 8.49999999997012
endloop
endfacet
facet normal -1.0 0.0 0.0
outer loop
vertex 214.975917553501 -87.2348069130525 9.85229615677481
vertex 214.975917553505 -81.8724602499129 12
vertex 214.975917553501 -86.8724602499089 9.89999999997011
endloop
endfacet
facet normal -1.0 0.0 0.0
outer loop
vertex 214.975917553501 -86.8724602499089 9.89999999997011
vertex 214.975917553505 -81.8724602499129 12
vertex 214.975917553502 -86.5101135867654 9.85229615677481
endloop
endfacet
facet normal -1.0 0.0 0.0
outer loop
vertex 214.975917553502 -86.5101135867654 9.85229615677481
vertex 214.975917553505 -81.8724602499129 12
vertex 214.975917553502 -86.1724602499089 9.71243556526833
endloop
endfacet
facet normal -1.0 0.0 0.0
outer loop
vertex 214.975917553502 -86.1724602499089 9.71243556526833
vertex 214.975917553505 -81.8724602499129 12
vertex 214.975917553503 -85.8825107562477 9.48994949363128
endloop
endfacet
facet normal -1.0 0.0 0.0
outer loop
vertex 214.975917553503 -85.8825107562477 9.48994949363128
vertex 214.975917553505 -81.8724602499129 12
vertex 214.975917553504 -85.6600246846107 9.19999999997012
endloop
endfacet
facet normal -1.0 0.0 0.0
outer loop
vertex 214.975917553504 -85.6600246846107 9.19999999997012
vertex 214.975917553505 -81.8724602499129 12
vertex 214.975917553505 -85.5201640931042 8.86234666311365
endloop
endfacet
facet normal -1.0 0.0 0.0
outer loop
vertex 214.975917553505 -85.5201640931042 8.86234666311365
vertex 214.975917553505 -81.8724602499129 12
vertex 214.975917553506 -85.4724602499089 8.49999999997012
endloop
endfacet
facet normal -1.0 0.0 0.0
outer loop
vertex 214.975917553505 -91.8724602499129 4.99999999999996
vertex 214.975917553509 -87.2348069130525 7.14770384316542
vertex 214.975917553505 -81.8724602499129 4.99999999999996
endloop
endfacet
facet normal -1.0 0.0 0.0
outer loop
vertex 214.975917553509 -87.2348069130525 7.14770384316542
vertex 214.975917553505 -91.8724602499129 4.99999999999996
vertex 214.975917553509 -87.5724602499089 7.28756443467191
endloop
endfacet
facet normal -1.0 0.0 0.0
outer loop
vertex 214.975917553509 -87.5724602499089 7.28756443467191
vertex 214.975917553505 -91.8724602499129 4.99999999999996
vertex 214.975917553508 -87.8624097435701 7.51005050630895
endloop
endfacet
facet normal -1.0 0.0 0.0
outer loop
vertex 214.975917553508 -87.8624097435701 7.51005050630895
vertex 214.975917553505 -91.8724602499129 4.99999999999996
vertex 214.975917553507 -88.0848958152071 7.79999999997012
endloop
endfacet
facet normal -1.0 0.0 0.0
outer loop
vertex 214.975917553507 -88.0848958152071 7.79999999997012
vertex 214.975917553505 -91.8724602499129 4.99999999999996
vertex 214.975917553506 -88.2247564067136 8.13765333682659
endloop
endfacet
facet normal -1.0 0.0 0.0
outer loop
vertex 214.975917553506 -88.2247564067136 8.13765333682659
vertex 214.975917553505 -91.8724602499129 4.99999999999996
vertex 214.975917553505 -88.272460249909 8.49999999997012
endloop
endfacet
facet normal -1.0 0.0 0.0
outer loop
vertex 214.975917553505 -81.8724602499129 4.99999999999996
vertex 214.975917553509 -87.2348069130525 7.14770384316542
vertex 214.97591755351 -86.8724602499089 7.09999999997012
endloop
endfacet
facet normal -1.0 0.0 0.0
outer loop
vertex 214.975917553505 -81.8724602499129 4.99999999999996
vertex 214.97591755351 -86.8724602499089 7.09999999997012
vertex 214.97591755351 -86.5101135867654 7.14770384316542
endloop
endfacet
facet normal -1.0 0.0 0.0
outer loop
vertex 214.975917553505 -81.8724602499129 4.99999999999996
vertex 214.97591755351 -86.5101135867654 7.14770384316542
vertex 214.975917553509 -86.1724602499089 7.28756443467191
endloop
endfacet
facet normal -1.0 0.0 0.0
outer loop
vertex 214.975917553505 -81.8724602499129 4.99999999999996
vertex 214.975917553509 -86.1724602499089 7.28756443467191
vertex 214.975917553509 -85.8825107562477 7.51005050630895
endloop
endfacet
facet normal -1.0 0.0 0.0
outer loop
vertex 214.975917553505 -81.8724602499129 4.99999999999996
vertex 214.975917553509 -85.8825107562477 7.51005050630895
vertex 214.975917553508 -85.6600246846107 7.79999999997012
endloop
endfacet
facet normal -1.0 0.0 0.0
outer loop
vertex 214.975917553505 -81.8724602499129 4.99999999999996
vertex 214.975917553508 -85.6600246846107 7.79999999997012
vertex 214.975917553507 -85.5201640931042 8.13765333682659
endloop
endfacet
facet normal -1.0 0.0 0.0
outer loop
vertex 214.975917553505 -81.8724602499129 4.99999999999996
vertex 214.975917553507 -85.5201640931042 8.13765333682659
vertex 214.975917553506 -85.4724602499089 8.49999999997012
endloop
endfacet
facet normal -1.0 0.0 0.0
outer loop
vertex 214.975917553505 -81.8724602499129 4.99999999999996
vertex 214.975917553506 -85.4724602499089 8.49999999997012
vertex 214.975917553505 -81.8724602499129 12
endloop
endfacet
facet normal 1.0 -1.08286712929839e-013 1.54695304185494e-013
outer loop
vertex 224.775917553505 -91.8724602499128 4.99999999999996
vertex 224.775917553503 -87.8624097435745 7.5100505063388
vertex 224.775917553505 -91.8724602499128 12
endloop
endfacet
facet normal 1.0 -1.08286712929839e-013 1.54695304185494e-013
outer loop
vertex 224.775917553503 -87.8624097435745 7.5100505063388
vertex 224.775917553505 -91.8724602499128 4.99999999999996
vertex 224.775917553504 -87.5724602499134 7.28756443470175
endloop
endfacet
facet normal 1.0 -1.08286712929839e-013 1.54695304185494e-013
outer loop
vertex 224.775917553504 -87.5724602499134 7.28756443470175
vertex 224.775917553505 -91.8724602499128 4.99999999999996
vertex 224.775917553505 -87.2348069130569 7.14770384319527
endloop
endfacet
facet normal 1.0 -1.08286712929839e-013 1.54695304185494e-013
outer loop
vertex 224.775917553505 -87.2348069130569 7.14770384319527
vertex 224.775917553505 -91.8724602499128 4.99999999999996
vertex 224.775917553507 -81.872460249914 4.99999999999996
endloop
endfacet
facet normal 1.0 -1.08286712929839e-013 1.54695304185494e-013
outer loop
vertex 224.775917553505 -91.8724602499128 12
vertex 224.775917553503 -87.8624097435745 7.5100505063388
vertex 224.775917553502 -88.0848958152116 7.79999999999996
endloop
endfacet
facet normal 1.0 -1.08286712929839e-013 1.54695304185494e-013
outer loop
vertex 224.775917553505 -91.8724602499128 12
vertex 224.775917553502 -88.0848958152116 7.79999999999996
vertex 224.775917553501 -88.2247564067181 8.13765333685643
endloop
endfacet
facet normal 1.0 -1.08286712929839e-013 1.54695304185494e-013
outer loop
vertex 224.775917553505 -91.8724602499128 12
vertex 224.775917553501 -88.2247564067181 8.13765333685643
vertex 224.7759175535 -88.2724602499133 8.49999999999996
endloop
endfacet
facet normal 1.0 -1.08286712929839e-013 1.54695304185494e-013
outer loop
vertex 224.775917553505 -87.2348069130569 7.14770384319527
vertex 224.775917553507 -81.872460249914 4.99999999999996
vertex 224.775917553505 -86.8724602499133 7.09999999999997
endloop
endfacet
facet normal 1.0 -1.08286712929839e-013 1.54695304185494e-013
outer loop
vertex 224.775917553505 -86.8724602499133 7.09999999999997
vertex 224.775917553507 -81.872460249914 4.99999999999996
vertex 224.775917553505 -86.5101135867698 7.14770384319527
endloop
endfacet
facet normal 1.0 -1.08286712929839e-013 1.54695304185494e-013
outer loop
vertex 224.775917553505 -86.5101135867698 7.14770384319527
vertex 224.775917553507 -81.872460249914 4.99999999999996
vertex 224.775917553505 -86.1724602499133 7.28756443470175
endloop
endfacet
facet normal 1.0 -1.08286712929839e-013 1.54695304185494e-013
outer loop
vertex 224.775917553505 -86.1724602499133 7.28756443470175
vertex 224.775917553507 -81.872460249914 4.99999999999996
vertex 224.775917553504 -85.8825107562522 7.5100505063388
endloop
endfacet
facet normal 1.0 -1.08286712929839e-013 1.54695304185494e-013
outer loop
vertex 224.775917553504 -85.8825107562522 7.5100505063388
vertex 224.775917553507 -81.872460249914 4.99999999999996
vertex 224.775917553503 -85.6600246846151 7.79999999999996
endloop
endfacet
facet normal 1.0 -1.08286712929839e-013 1.54695304185494e-013
outer loop
vertex 224.775917553503 -85.6600246846151 7.79999999999996
vertex 224.775917553507 -81.872460249914 4.99999999999996
vertex 224.775917553502 -85.5201640931086 8.13765333685643
endloop
endfacet
facet normal 1.0 -1.08286712929839e-013 1.54695304185494e-013
outer loop
vertex 224.775917553502 -85.5201640931086 8.13765333685643
vertex 224.775917553507 -81.872460249914 4.99999999999996
vertex 224.775917553501 -85.4724602499133 8.49999999999996
endloop
endfacet
facet normal 1.0 -1.08286712929839e-013 1.54695304185494e-013
outer loop
vertex 224.775917553505 -91.8724602499128 12
vertex 224.775917553496 -87.2348069130569 9.85229615680466
vertex 224.775917553505 -81.8724602499128 12
endloop
endfacet
facet normal 1.0 -1.08286712929839e-013 1.54695304185494e-013
outer loop
vertex 224.775917553496 -87.2348069130569 9.85229615680466
vertex 224.775917553505 -91.8724602499128 12
vertex 224.775917553497 -87.5724602499134 9.71243556529818
endloop
endfacet
facet normal 1.0 -1.08286712929839e-013 1.54695304185494e-013
outer loop
vertex 224.775917553497 -87.5724602499134 9.71243556529818
vertex 224.775917553505 -91.8724602499128 12
vertex 224.775917553497 -87.8624097435745 9.48994949366113
endloop
endfacet
facet normal 1.0 -1.08286712929839e-013 1.54695304185494e-013
outer loop
vertex 224.775917553497 -87.8624097435745 9.48994949366113
vertex 224.775917553505 -91.8724602499128 12
vertex 224.775917553498 -88.0848958152116 9.19999999999996
endloop
endfacet
facet normal 1.0 -1.08286712929839e-013 1.54695304185494e-013
outer loop
vertex 224.775917553498 -88.0848958152116 9.19999999999996
vertex 224.775917553505 -91.8724602499128 12
vertex 224.775917553499 -88.2247564067181 8.86234666314349
endloop
endfacet
facet normal 1.0 -1.08286712929839e-013 1.54695304185494e-013
outer loop
vertex 224.775917553499 -88.2247564067181 8.86234666314349
vertex 224.775917553505 -91.8724602499128 12
vertex 224.7759175535 -88.2724602499133 8.49999999999996
endloop
endfacet
facet normal 1.0 -1.08286712929839e-013 1.54695304185494e-013
outer loop
vertex 224.775917553505 -81.8724602499128 12
vertex 224.775917553496 -87.2348069130569 9.85229615680466
vertex 224.775917553496 -86.8724602499133 9.89999999999996
endloop
endfacet
facet normal 1.0 -1.08286712929839e-013 1.54695304185494e-013
outer loop
vertex 224.775917553505 -81.8724602499128 12
vertex 224.775917553496 -86.8724602499133 9.89999999999996
vertex 224.775917553497 -86.5101135867698 9.85229615680466
endloop
endfacet
facet normal 1.0 -1.08286712929839e-013 1.54695304185494e-013
outer loop
vertex 224.775917553505 -81.8724602499128 12
vertex 224.775917553497 -86.5101135867698 9.85229615680466
vertex 224.775917553497 -86.1724602499133 9.71243556529818
endloop
endfacet
facet normal 1.0 -1.08286712929839e-013 1.54695304185494e-013
outer loop
vertex 224.775917553505 -81.8724602499128 12
vertex 224.775917553497 -86.1724602499133 9.71243556529818
vertex 224.775917553498 -85.8825107562522 9.48994949366113
endloop
endfacet
facet normal 1.0 -1.08286712929839e-013 1.54695304185494e-013
outer loop
vertex 224.775917553505 -81.8724602499128 12
vertex 224.775917553498 -85.8825107562522 9.48994949366113
vertex 224.775917553499 -85.6600246846151 9.19999999999996
endloop
endfacet
facet normal 1.0 -1.08286712929839e-013 1.54695304185494e-013
outer loop
vertex 224.775917553505 -81.8724602499128 12
vertex 224.775917553499 -85.6600246846151 9.19999999999996
vertex 224.7759175535 -85.5201640931086 8.86234666314349
endloop
endfacet
facet normal 1.0 -1.08286712929839e-013 1.54695304185494e-013
outer loop
vertex 224.775917553505 -81.8724602499128 12
vertex 224.7759175535 -85.5201640931086 8.86234666314349
vertex 224.775917553501 -85.4724602499133 8.49999999999996
endloop
endfacet
facet normal 1.0 -1.08286712929839e-013 1.54695304185494e-013
outer loop
vertex 224.775917553505 -81.8724602499128 12
vertex 224.775917553501 -85.4724602499133 8.49999999999996
vertex 224.775917553507 -81.872460249914 4.99999999999996
endloop
endfacet
facet normal 5.17901389444803e-009 0.999999999999996 9.44792706772249e-008
outer loop
vertex 279.654330282388 -81.8724602499506 5.00000000002773
vertex 314.854330282388 -81.8724602499658 3.89047743129536e-011
vertex 279.654330282388 -81.8724602499506 2.77625700206841e-011
endloop
endfacet
facet normal 5.17901389444803e-009 0.999999999999996 9.44792706772249e-008
outer loop
vertex 314.854330282388 -81.8724602499658 3.89047743129536e-011
vertex 279.654330282388 -81.8724602499506 5.00000000002773
vertex 311.85433028239 -81.8724602499632 5.00000000003823
endloop
endfacet
facet normal 5.17901389444803e-009 0.999999999999996 9.44792706772249e-008
outer loop
vertex 314.854330282388 -81.8724602499658 3.89047743129536e-011
vertex 311.85433028239 -81.8724602499632 5.00000000003823
vertex 314.854203284265 -81.8724612781332 9.99999999842592
endloop
endfacet
facet normal 5.17901389444803e-009 0.999999999999996 9.44792706772249e-008
outer loop
vertex 314.854203284265 -81.8724612781332 9.99999999842592
vertex 311.85433028239 -81.8724602499632 5.00000000003823
vertex 311.854203284264 -81.8724612781316 9.99999999842527
endloop
endfacet
facet normal -2.01999038283351e-013 -1.0 2.70771195225206e-014
outer loop
vertex 225.175911146848 -145.172460250097 2.51175474451893e-011
vertex 201.27591755009 -145.172460250092 4.99916902553373
vertex 201.27591755009 -145.172460250092 2.14416741700805e-011
endloop
endfacet
facet normal -2.01999038283351e-013 -1.0 2.70771195225206e-014
outer loop
vertex 201.27591755009 -145.172460250092 4.99916902553373
vertex 225.175911146848 -145.172460250097 2.51175474451893e-011
vertex 225.175914436674 -145.172460250097 4.99868439334864
endloop
endfacet
facet normal 1.90244220992921e-013 -5.78201243105966e-014 -1.0
outer loop
vertex 196.2759175521 -91.8724602493333 5.8743003100437e-012
vertex 201.275917551911 -96.8724158704257 7.33384014877807e-012
vertex 196.275917551911 -96.8724158702372 7.33467679503411e-012
endloop
endfacet
facet normal 1.90244220992921e-013 -5.78201243105966e-014 -1.0
outer loop
vertex 201.275917551911 -96.8724158704257 7.33384014877807e-012
vertex 196.2759175521 -91.8724602493333 5.8743003100437e-012
vertex 201.2759175521 -91.8724602495218 5.87346366378766e-012
endloop
endfacet
facet normal 1.90244220992921e-013 -5.78201243105966e-014 -1.0
outer loop
vertex 201.275917551911 -96.8724158704257 7.33384014877807e-012
vertex 225.175911146848 -145.172460250097 2.51175474451893e-011
vertex 201.27591755009 -145.172460250092 2.14416741700805e-011
endloop
endfacet
facet normal 1.90244220992921e-013 -5.78201243105966e-014 -1.0
outer loop
vertex 225.175911146848 -145.172460250097 2.51175474451893e-011
vertex 201.275917551911 -96.8724158704257 7.33384014877807e-012
vertex 201.2759175521 -91.8724602495218 5.87346366378766e-012
endloop
endfacet
facet normal 1.90244220992921e-013 -5.78201243105966e-014 -1.0
outer loop
vertex 225.175911146848 -145.172460250097 2.51175474451893e-011
vertex 201.2759175521 -91.8724602495218 5.87346366378766e-012
vertex 201.275917552477 -81.8724602499167 2.95322018956803e-012
endloop
endfacet
facet normal 1.90244220992921e-013 -5.78201243105966e-014 -1.0
outer loop
vertex 225.175911146848 -145.172460250097 2.51175474451893e-011
vertex 201.275917552477 -81.8724602499167 2.95322018956803e-012
vertex 269.654330282388 -81.8724602499526 2.77625700206841e-011
endloop
endfacet
facet normal 1.90244220992921e-013 -5.78201243105966e-014 -1.0
outer loop
vertex 260.165442888046 -52.9901745734172 2.77625700206841e-011
vertex 260.165442888047 -60.7547459264926 2.77625700206841e-011
vertex 259.654330282382 -56.8724602499552 2.77625700206841e-011
endloop
endfacet
facet normal 1.90244220992921e-013 -5.78201243105966e-014 -1.0
outer loop
vertex 260.165442888047 -60.7547459264926 2.77625700206841e-011
vertex 260.165442888046 -52.9901745734172 2.77625700206841e-011
vertex 261.663949225614 -49.3724602499544 2.77625700206841e-011
endloop
endfacet
facet normal 1.90244220992921e-013 -5.78201243105966e-014 -1.0
outer loop
vertex 260.165442888047 -60.7547459264926 2.77625700206841e-011
vertex 261.663949225614 -49.3724602499544 2.77625700206841e-011
vertex 261.663949225617 -64.3724602499546 2.77625700206841e-011
endloop
endfacet
facet normal 1.90244220992921e-013 -5.78201243105966e-014 -1.0
outer loop
vertex 261.663949225617 -64.3724602499546 2.77625700206841e-011
vertex 261.663949225614 -49.3724602499544 2.77625700206841e-011
vertex 264.047728564582 -46.2658585321558 2.77625700206841e-011
endloop
endfacet
facet normal 1.90244220992921e-013 -5.78201243105966e-014 -1.0
outer loop
vertex 261.663949225617 -64.3724602499546 2.77625700206841e-011
vertex 264.047728564582 -46.2658585321558 2.77625700206841e-011
vertex 264.047728564587 -67.4790619677524 2.77625700206841e-011
endloop
endfacet
facet normal 1.90244220992921e-013 -5.78201243105966e-014 -1.0
outer loop
vertex 264.047728564587 -67.4790619677524 2.77625700206841e-011
vertex 264.047728564582 -46.2658585321558 2.77625700206841e-011
vertex 267.154330282379 -43.8820791931869 2.77625700206841e-011
endloop
endfacet
facet normal 1.90244220992921e-013 -5.78201243105966e-014 -1.0
outer loop
vertex 264.047728564587 -67.4790619677524 2.77625700206841e-011
vertex 267.154330282379 -43.8820791931869 2.77625700206841e-011
vertex 267.154330282386 -69.8628413067198 2.77625700206841e-011
endloop
endfacet
facet normal 1.90244220992921e-013 -5.78201243105966e-014 -1.0
outer loop
vertex 267.154330282386 -69.8628413067198 2.77625700206841e-011
vertex 267.154330282379 -43.8820791931869 2.77625700206841e-011
vertex 270.772044605842 -42.3835728556164 2.77625700206841e-011
endloop
endfacet
facet normal 1.90244220992921e-013 -5.78201243105966e-014 -1.0
outer loop
vertex 267.154330282386 -69.8628413067198 2.77625700206841e-011
vertex 270.772044605842 -42.3835728556164 2.77625700206841e-011
vertex 269.654330282385 -70.8983752126521 2.77625700206841e-011
endloop
endfacet
facet normal 1.90244220992921e-013 -5.78201243105966e-014 -1.0
outer loop
vertex 269.654330282385 -70.8983752126521 2.77625700206841e-011
vertex 270.772044605842 -42.3835728556164 2.77625700206841e-011
vertex 269.654330282388 -81.8724602499526 2.77625700206841e-011
endloop
endfacet
facet normal 1.90244220992921e-013 -5.78201243105966e-014 -1.0
outer loop
vertex 282.15433028238 -43.8820791931834 2.77625700206841e-011
vertex 279.654330282385 -70.8983752126497 2.77625700206841e-011
vertex 278.536615958917 -42.3835728556147 2.77625700206841e-011
endloop
endfacet
facet normal 1.90244220992921e-013 -5.78201243105966e-014 -1.0
outer loop
vertex 279.654330282385 -70.8983752126497 2.77625700206841e-011
vertex 282.15433028238 -43.8820791931834 2.77625700206841e-011
vertex 282.154330282385 -69.8628413067167 2.77625700206841e-011
endloop
endfacet
facet normal 1.90244220992921e-013 -5.78201243105966e-014 -1.0
outer loop
vertex 282.154330282385 -69.8628413067167 2.77625700206841e-011
vertex 282.15433028238 -43.8820791931834 2.77625700206841e-011
vertex 285.260932000178 -46.265858532151 2.77625700206841e-011
endloop
endfacet
facet normal 1.90244220992921e-013 -5.78201243105966e-014 -1.0
outer loop
vertex 282.154330282385 -69.8628413067167 2.77625700206841e-011
vertex 285.260932000178 -46.265858532151 2.77625700206841e-011
vertex 285.260932000183 -67.4790619677474 2.77625700206841e-011
endloop
endfacet
facet normal 1.90244220992921e-013 -5.78201243105966e-014 -1.0
outer loop
vertex 285.260932000183 -67.4790619677474 2.77625700206841e-011
vertex 285.260932000178 -46.265858532151 2.77625700206841e-011
vertex 287.644711339147 -49.3724602499489 2.77625700206841e-011
endloop
endfacet
facet normal 1.90244220992921e-013 -5.78201243105966e-014 -1.0
outer loop
vertex 285.260932000183 -67.4790619677474 2.77625700206841e-011
vertex 287.644711339147 -49.3724602499489 2.77625700206841e-011
vertex 287.64471133915 -64.3724602499488 2.77625700206841e-011
endloop
endfacet
facet normal 1.90244220992921e-013 -5.78201243105966e-014 -1.0
outer loop
vertex 287.64471133915 -64.3724602499488 2.77625700206841e-011
vertex 287.644711339147 -49.3724602499489 2.77625700206841e-011
vertex 289.143217676718 -52.9901745734107 2.77625700206841e-011
endloop
endfacet
facet normal 1.90244220992921e-013 -5.78201243105966e-014 -1.0
outer loop
vertex 287.64471133915 -64.3724602499488 2.77625700206841e-011
vertex 289.143217676718 -52.9901745734107 2.77625700206841e-011
vertex 289.143217676719 -60.7547459264861 2.77625700206841e-011
endloop
endfacet
facet normal 1.90244220992921e-013 -5.78201243105966e-014 -1.0
outer loop
vertex 289.143217676719 -60.7547459264861 2.77625700206841e-011
vertex 289.143217676718 -52.9901745734107 2.77625700206841e-011
vertex 289.654330282382 -56.8724602499482 2.77625700206841e-011
endloop
endfacet
facet normal 1.90244220992921e-013 -5.78201243105966e-014 -1.0
outer loop
vertex 225.175911146848 -145.172460250097 2.51175474451893e-011
vertex 314.854330282359 -148.37245952366 3.89678511942335e-011
vertex 225.175911146848 -148.372459523642 2.51753005564714e-011
endloop
endfacet
facet normal 1.90244220992921e-013 -5.78201243105966e-014 -1.0
outer loop
vertex 314.854330282359 -148.37245952366 3.89678511942335e-011
vertex 225.175911146848 -145.172460250097 2.51175474451893e-011
vertex 269.654330282388 -81.8724602499526 2.77625700206841e-011
endloop
endfacet
facet normal 1.90244220992921e-013 -5.78201243105966e-014 -1.0
outer loop
vertex 314.854330282359 -148.37245952366 3.89678511942335e-011
vertex 269.654330282388 -81.8724602499526 2.77625700206841e-011
vertex 279.654330282388 -81.8724602499506 2.77625700206841e-011
endloop
endfacet
facet normal 1.90244220992921e-013 -5.78201243105966e-014 -1.0
outer loop
vertex 279.654330282388 -81.8724602499506 2.77625700206841e-011
vertex 269.654330282388 -81.8724602499526 2.77625700206841e-011
vertex 270.772044605842 -42.3835728556164 2.77625700206841e-011
endloop
endfacet
facet normal 1.90244220992921e-013 -5.78201243105966e-014 -1.0
outer loop
vertex 279.654330282388 -81.8724602499506 2.77625700206841e-011
vertex 270.772044605842 -42.3835728556164 2.77625700206841e-011
vertex 274.654330282379 -41.8724602499515 2.77625700206841e-011
endloop
endfacet
facet normal 1.90244220992921e-013 -5.78201243105966e-014 -1.0
outer loop
vertex 279.654330282388 -81.8724602499506 2.77625700206841e-011
vertex 274.654330282379 -41.8724602499515 2.77625700206841e-011
vertex 278.536615958917 -42.3835728556147 2.77625700206841e-011
endloop
endfacet
facet normal 1.90244220992921e-013 -5.78201243105966e-014 -1.0
outer loop
vertex 279.654330282388 -81.8724602499506 2.77625700206841e-011
vertex 278.536615958917 -42.3835728556147 2.77625700206841e-011
vertex 279.654330282385 -70.8983752126497 2.77625700206841e-011
endloop
endfacet
facet normal 1.90244220992921e-013 -5.78201243105966e-014 -1.0
outer loop
vertex 314.854330282359 -148.37245952366 3.89678511942335e-011
vertex 279.654330282388 -81.8724602499506 2.77625700206841e-011
vertex 314.854330282388 -81.8724602499658 3.89047743129536e-011
endloop
endfacet
facet normal -1.0 3.77036935460929e-011 1.67352647759032e-016
outer loop
vertex 201.27591755009 -145.172460250092 4.99916902553373
vertex 201.275917551911 -96.8724158704257 7.33384014877807e-012
vertex 201.27591755009 -145.172460250092 2.14416741700805e-011
endloop
endfacet
facet normal -1.0 3.77036935460929e-011 1.67352647759032e-016
outer loop
vertex 201.275917551911 -96.8724158704257 7.33384014877807e-012
vertex 201.27591755009 -145.172460250092 4.99916902553373
vertex 201.275917551911 -96.8724602493234 4.99959776017546
endloop
endfacet
facet normal -0.500000000000195 0.866025403784326 0.0
outer loop
vertex 267.154330282379 -43.8820791931869 5.00000000002773
vertex 270.772044605842 -42.3835728556164 2.77625700206841e-011
vertex 267.154330282379 -43.8820791931869 2.77625700206841e-011
endloop
endfacet
facet normal -0.258819045102755 0.965925826289006 0.0
outer loop
vertex 270.772044605842 -42.3835728556164 2.77625700206841e-011
vertex 267.154330282379 -43.8820791931869 5.00000000002773
vertex 270.772044605842 -42.3835728556164 5.00000000002773
endloop
endfacet
facet normal 1.0 2.54910249116818e-013 0.0
outer loop
vertex 279.654330282385 -70.8983752126497 2.77625700206841e-011
vertex 279.654330282388 -81.8724602499506 5.00000000002773
vertex 279.654330282388 -81.8724602499506 2.77625700206841e-011
endloop
endfacet
facet normal 1.0 2.54910249116818e-013 0.0
outer loop
vertex 279.654330282388 -81.8724602499506 5.00000000002773
vertex 279.654330282385 -70.8983752126497 2.77625700206841e-011
vertex 279.654330282385 -70.8983752126497 5.00000000002773
endloop
endfacet
facet normal -0.866025403784569 0.499999999999774 0.0
outer loop
vertex 261.663949225614 -49.3724602499544 5.00000000002773
vertex 260.165442888046 -52.9901745734172 2.77625700206841e-011
vertex 260.165442888046 -52.9901745734172 5.00000000002773
endloop
endfacet
facet normal -0.965925826289139 0.258819045102256 0.0
outer loop
vertex 260.165442888046 -52.9901745734172 2.77625700206841e-011
vertex 261.663949225614 -49.3724602499544 5.00000000002773
vertex 261.663949225614 -49.3724602499544 2.77625700206841e-011
endloop
endfacet
facet normal 0.707106781186388 0.707106781186707 0.0
outer loop
vertex 285.260932000178 -46.265858532151 2.77625700206841e-011
vertex 287.644711339147 -49.3724602499489 5.00000000002773
vertex 287.644711339147 -49.3724602499489 2.77625700206841e-011
endloop
endfacet
facet normal 0.866025403784312 0.500000000000218 0.0
outer loop
vertex 287.644711339147 -49.3724602499489 5.00000000002773
vertex 285.260932000178 -46.265858532151 2.77625700206841e-011
vertex 285.260932000178 -46.265858532151 5.00000000002773
endloop
endfacet
facet normal -1.0 -2.3846442659316e-013 0.0
outer loop
vertex 269.654330282385 -70.8983752126521 5.00000000002773
vertex 269.654330282388 -81.8724602499526 2.77625700206841e-011
vertex 269.654330282388 -81.8724602499526 5.00000000002773
endloop
endfacet
facet normal -1.0 -2.3846442659316e-013 0.0
outer loop
vertex 269.654330282388 -81.8724602499526 2.77625700206841e-011
vertex 269.654330282385 -70.8983752126521 5.00000000002773
vertex 269.654330282385 -70.8983752126521 2.77625700206841e-011
endloop
endfacet
facet normal -0.38268343236497 -0.923879532511336 0.0
outer loop
vertex 269.654330282385 -70.8983752126521 5.00000000002773
vertex 267.154330282386 -69.8628413067198 2.77625700206841e-011
vertex 269.654330282385 -70.8983752126521 2.77625700206841e-011
endloop
endfacet
facet normal -0.499999999999837 -0.866025403784533 0.0
outer loop
vertex 267.154330282386 -69.8628413067198 2.77625700206841e-011
vertex 269.654330282385 -70.8983752126521 5.00000000002773
vertex 267.154330282386 -69.8628413067198 5.00000000002773
endloop
endfacet
facet normal 0.500000000000166 -0.866025403784343 0.0
outer loop
vertex 282.154330282385 -69.8628413067167 5.00000000002773
vertex 279.654330282385 -70.8983752126497 2.77625700206841e-011
vertex 282.154330282385 -69.8628413067167 2.77625700206841e-011
endloop
endfacet
facet normal 0.38268343236521 -0.923879532511237 0.0
outer loop
vertex 279.654330282385 -70.8983752126497 2.77625700206841e-011
vertex 282.154330282385 -69.8628413067167 5.00000000002773
vertex 279.654330282385 -70.8983752126497 5.00000000002773
endloop
endfacet
facet normal -0.258819045102755 0.965925826289006 0.0
outer loop
vertex 270.772044605842 -42.3835728556164 5.00000000002773
vertex 274.654330282379 -41.8724602499515 2.77625700206841e-011
vertex 270.772044605842 -42.3835728556164 2.77625700206841e-011
endloop
endfacet
facet normal -2.32205701660767e-013 1.0 0.0
outer loop
vertex 274.654330282379 -41.8724602499515 2.77625700206841e-011
vertex 270.772044605842 -42.3835728556164 5.00000000002773
vertex 274.654330282379 -41.8724602499515 5.00000000002773
endloop
endfacet
facet normal -2.32205701660767e-013 1.0 0.0
outer loop
vertex 274.654330282379 -41.8724602499515 5.00000000002773
vertex 278.536615958917 -42.3835728556147 2.77625700206841e-011
vertex 274.654330282379 -41.8724602499515 2.77625700206841e-011
endloop
endfacet
facet normal 0.258819045102322 0.965925826289122 0.0
outer loop
vertex 278.536615958917 -42.3835728556147 2.77625700206841e-011
vertex 274.654330282379 -41.8724602499515 5.00000000002773
vertex 278.536615958917 -42.3835728556147 5.00000000002773
endloop
endfacet
facet normal 0.965925826289014 0.258819045102725 0.0
outer loop
vertex 289.143217676718 -52.9901745734107 2.77625700206841e-011
vertex 289.654330282382 -56.8724602499482 5.00000000002773
vertex 289.654330282382 -56.8724602499482 2.77625700206841e-011
endloop
endfacet
facet normal 1.0 1.82365864014414e-013 0.0
outer loop
vertex 289.654330282382 -56.8724602499482 5.00000000002773
vertex 289.143217676718 -52.9901745734107 2.77625700206841e-011
vertex 289.143217676718 -52.9901745734107 5.00000000002773
endloop
endfacet
facet normal -0.499999999999837 -0.866025403784533 0.0
outer loop
vertex 267.154330282386 -69.8628413067198 5.00000000002773
vertex 264.047728564587 -67.4790619677524 2.77625700206841e-011
vertex 267.154330282386 -69.8628413067198 2.77625700206841e-011
endloop
endfacet
facet normal -0.707106781186346 -0.707106781186749 0.0
outer loop
vertex 264.047728564587 -67.4790619677524 2.77625700206841e-011
vertex 267.154330282386 -69.8628413067198 5.00000000002773
vertex 264.047728564587 -67.4790619677524 5.00000000002773
endloop
endfacet
facet normal -0.707106781186656 0.707106781186439 0.0
outer loop
vertex 264.047728564582 -46.2658585321558 5.00000000002773
vertex 267.154330282379 -43.8820791931869 2.77625700206841e-011
vertex 264.047728564582 -46.2658585321558 2.77625700206841e-011
endloop
endfacet
facet normal -0.500000000000195 0.866025403784326 0.0
outer loop
vertex 267.154330282379 -43.8820791931869 2.77625700206841e-011
vertex 264.047728564582 -46.2658585321558 5.00000000002773
vertex 267.154330282379 -43.8820791931869 5.00000000002773
endloop
endfacet
facet normal 1.0 1.82365864014414e-013 0.0
outer loop
vertex 289.654330282382 -56.8724602499482 2.77625700206841e-011
vertex 289.143217676719 -60.7547459264861 5.00000000002773
vertex 289.143217676719 -60.7547459264861 2.77625700206841e-011
endloop
endfacet
facet normal 0.965925826289124 -0.258819045102311 0.0
outer loop
vertex 289.143217676719 -60.7547459264861 5.00000000002773
vertex 289.654330282382 -56.8724602499482 2.77625700206841e-011
vertex 289.654330282382 -56.8724602499482 5.00000000002773
endloop
endfacet
facet normal -0.965925826289014 -0.258819045102722 0.0
outer loop
vertex 260.165442888047 -60.7547459264926 5.00000000002773
vertex 261.663949225617 -64.3724602499546 2.77625700206841e-011
vertex 261.663949225617 -64.3724602499546 5.00000000002773
endloop
endfacet
facet normal -0.866025403784313 -0.500000000000218 0.0
outer loop
vertex 261.663949225617 -64.3724602499546 2.77625700206841e-011
vertex 260.165442888047 -60.7547459264926 5.00000000002773
vertex 260.165442888047 -60.7547459264926 2.77625700206841e-011
endloop
endfacet
facet normal -0.866025403784313 -0.500000000000218 0.0
outer loop
vertex 261.663949225617 -64.3724602499546 5.00000000002773
vertex 264.047728564587 -67.4790619677524 2.77625700206841e-011
vertex 264.047728564587 -67.4790619677524 5.00000000002773
endloop
endfacet
facet normal -0.707106781186346 -0.707106781186749 0.0
outer loop
vertex 264.047728564587 -67.4790619677524 2.77625700206841e-011
vertex 261.663949225617 -64.3724602499546 5.00000000002773
vertex 261.663949225617 -64.3724602499546 2.77625700206841e-011
endloop
endfacet
facet normal -0.965925826289139 0.258819045102256 0.0
outer loop
vertex 260.165442888046 -52.9901745734172 5.00000000002773
vertex 259.654330282382 -56.8724602499552 2.77625700206841e-011
vertex 259.654330282382 -56.8724602499552 5.00000000002773
endloop
endfacet
facet normal -1.0 -1.80138086540503e-013 0.0
outer loop
vertex 259.654330282382 -56.8724602499552 2.77625700206841e-011
vertex 260.165442888046 -52.9901745734172 5.00000000002773
vertex 260.165442888046 -52.9901745734172 2.77625700206841e-011
endloop
endfacet
facet normal 0.866025403784312 0.500000000000218 0.0
outer loop
vertex 287.644711339147 -49.3724602499489 2.77625700206841e-011
vertex 289.143217676718 -52.9901745734107 5.00000000002773
vertex 289.143217676718 -52.9901745734107 2.77625700206841e-011
endloop
endfacet
facet normal 0.965925826289014 0.258819045102725 0.0
outer loop
vertex 289.143217676718 -52.9901745734107 5.00000000002773
vertex 287.644711339147 -49.3724602499489 2.77625700206841e-011
vertex 287.644711339147 -49.3724602499489 5.00000000002773
endloop
endfacet
facet normal 0.965925826289124 -0.258819045102311 0.0
outer loop
vertex 289.143217676719 -60.7547459264861 2.77625700206841e-011
vertex 287.64471133915 -64.3724602499488 5.00000000002773
vertex 287.64471133915 -64.3724602499488 2.77625700206841e-011
endloop
endfacet
facet normal 0.866025403784551 -0.499999999999805 0.0
outer loop
vertex 287.64471133915 -64.3724602499488 5.00000000002773
vertex 289.143217676719 -60.7547459264861 2.77625700206841e-011
vertex 289.143217676719 -60.7547459264861 5.00000000002773
endloop
endfacet
facet normal 0.707106781186705 -0.707106781186391 0.0
outer loop
vertex 285.260932000183 -67.4790619677474 5.00000000002773
vertex 282.154330282385 -69.8628413067167 2.77625700206841e-011
vertex 285.260932000183 -67.4790619677474 2.77625700206841e-011
endloop
endfacet
facet normal 0.500000000000166 -0.866025403784343 0.0
outer loop
vertex 282.154330282385 -69.8628413067167 2.77625700206841e-011
vertex 285.260932000183 -67.4790619677474 5.00000000002773
vertex 282.154330282385 -69.8628413067167 5.00000000002773
endloop
endfacet
facet normal -1.0 -1.80138086540503e-013 0.0
outer loop
vertex 259.654330282382 -56.8724602499552 5.00000000002773
vertex 260.165442888047 -60.7547459264926 2.77625700206841e-011
vertex 260.165442888047 -60.7547459264926 5.00000000002773
endloop
endfacet
facet normal -0.965925826289014 -0.258819045102722 0.0
outer loop
vertex 260.165442888047 -60.7547459264926 2.77625700206841e-011
vertex 259.654330282382 -56.8724602499552 5.00000000002773
vertex 259.654330282382 -56.8724602499552 2.77625700206841e-011
endloop
endfacet
facet normal 0.49999999999984 0.866025403784531 0.0
outer loop
vertex 282.15433028238 -43.8820791931834 5.00000000002773
vertex 285.260932000178 -46.265858532151 2.77625700206841e-011
vertex 282.15433028238 -43.8820791931834 2.77625700206841e-011
endloop
endfacet
facet normal 0.707106781186388 0.707106781186707 0.0
outer loop
vertex 285.260932000178 -46.265858532151 2.77625700206841e-011
vertex 282.15433028238 -43.8820791931834 5.00000000002773
vertex 285.260932000178 -46.265858532151 5.00000000002773
endloop
endfacet
facet normal -0.707106781186656 0.707106781186439 0.0
outer loop
vertex 264.047728564582 -46.2658585321558 5.00000000002773
vertex 261.663949225614 -49.3724602499544 2.77625700206841e-011
vertex 261.663949225614 -49.3724602499544 5.00000000002773
endloop
endfacet
facet normal -0.866025403784569 0.499999999999774 0.0
outer loop
vertex 261.663949225614 -49.3724602499544 2.77625700206841e-011
vertex 264.047728564582 -46.2658585321558 5.00000000002773
vertex 264.047728564582 -46.2658585321558 2.77625700206841e-011
endloop
endfacet
facet normal 0.258819045102322 0.965925826289122 0.0
outer loop
vertex 278.536615958917 -42.3835728556147 5.00000000002773
vertex 282.15433028238 -43.8820791931834 2.77625700206841e-011
vertex 278.536615958917 -42.3835728556147 2.77625700206841e-011
endloop
endfacet
facet normal 0.49999999999984 0.866025403784531 0.0
outer loop
vertex 282.15433028238 -43.8820791931834 2.77625700206841e-011
vertex 278.536615958917 -42.3835728556147 5.00000000002773
vertex 282.15433028238 -43.8820791931834 5.00000000002773
endloop
endfacet
facet normal 0.866025403784551 -0.499999999999805 0.0
outer loop
vertex 287.64471133915 -64.3724602499488 2.77625700206841e-011
vertex 285.260932000183 -67.4790619677474 5.00000000002773
vertex 285.260932000183 -67.4790619677474 2.77625700206841e-011
endloop
endfacet
facet normal 0.707106781186705 -0.707106781186391 0.0
outer loop
vertex 285.260932000183 -67.4790619677474 5.00000000002773
vertex 287.64471133915 -64.3724602499488 2.77625700206841e-011
vertex 287.64471133915 -64.3724602499488 5.00000000002773
endloop
endfacet
facet normal 5.7015670717809e-013 1.0 -1.05631852357061e-012
outer loop
vertex 214.975917553505 -81.8724602499129 4.99999999999996
vertex 224.775917553507 -81.872460249914 4.99999999999996
vertex 201.275917552477 -81.8724602499143 4.99973090757971
endloop
endfacet
facet normal 5.7015670717809e-013 1.0 -1.05631852357061e-012
outer loop
vertex 224.775917553507 -81.872460249914 4.99999999999996
vertex 214.975917553505 -81.8724602499129 4.99999999999996
vertex 224.775917553505 -81.8724602499128 12
endloop
endfacet
facet normal 5.7015670717809e-013 1.0 -1.05631852357061e-012
outer loop
vertex 224.775917553505 -81.8724602499128 12
vertex 214.975917553505 -81.8724602499129 4.99999999999996
vertex 214.975917553505 -81.8724602499129 12
endloop
endfacet
facet normal 5.7015670717809e-013 1.0 -1.05631852357061e-012
outer loop
vertex 201.275917552477 -81.8724602499143 4.99973090757971
vertex 269.654330282388 -81.8724602499526 2.77625700206841e-011
vertex 201.275917552477 -81.8724602499167 2.95322018956803e-012
endloop
endfacet
facet normal 5.7015670717809e-013 1.0 -1.05631852357061e-012
outer loop
vertex 269.654330282388 -81.8724602499526 2.77625700206841e-011
vertex 201.275917552477 -81.8724602499143 4.99973090757971
vertex 269.654330282388 -81.8724602499526 5.00000000002773
endloop
endfacet
facet normal 5.7015670717809e-013 1.0 -1.05631852357061e-012
outer loop
vertex 269.654330282388 -81.8724602499526 5.00000000002773
vertex 201.275917552477 -81.8724602499143 4.99973090757971
vertex 224.775917553507 -81.872460249914 4.99999999999996
endloop
endfacet
facet normal -2.89438474698783e-006 -1.18521270070112e-005 0.999999999925575
outer loop
vertex 201.275917551911 -96.8724602493234 4.99959776017546
vertex 196.2759175521 -91.8724602493318 4.99964214264354
vertex 196.275917551911 -96.8724602491348 4.99959776017546
endloop
endfacet
facet normal -2.89438474698783e-006 -1.18521270070112e-005 0.999999999925575
outer loop
vertex 196.2759175521 -91.8724602493318 4.99964214264354
vertex 201.275917551911 -96.8724602493234 4.99959776017546
vertex 201.2759175521 -91.8724602495203 4.99964214264354
endloop
endfacet
facet normal -2.89438474698783e-006 -1.18521270070112e-005 0.999999999925575
outer loop
vertex 228.075887709945 -148.372459289202 4.99782006311135
vertex 225.175914436674 -145.172460250097 4.99868439334864
vertex 225.175914436674 -148.372459523641 4.9986843933487
endloop
endfacet
facet normal -2.89438474698783e-006 -1.18521270070112e-005 0.999999999925575
outer loop
vertex 260.165442888047 -60.7547459264926 5.00000000002773
vertex 260.165442888046 -52.9901745734172 5.00000000002773
vertex 259.654330282382 -56.8724602499552 5.00000000002773
endloop
endfacet
facet normal -2.89438474698783e-006 -1.18521270070112e-005 0.999999999925575
outer loop
vertex 260.165442888046 -52.9901745734172 5.00000000002773
vertex 260.165442888047 -60.7547459264926 5.00000000002773
vertex 261.663949225614 -49.3724602499544 5.00000000002773
endloop
endfacet
facet normal -2.89438474698783e-006 -1.18521270070112e-005 0.999999999925575
outer loop
vertex 261.663949225614 -49.3724602499544 5.00000000002773
vertex 260.165442888047 -60.7547459264926 5.00000000002773
vertex 261.663949225617 -64.3724602499546 5.00000000002773
endloop
endfacet
facet normal -2.89438474698783e-006 -1.18521270070112e-005 0.999999999925575
outer loop
vertex 261.663949225614 -49.3724602499544 5.00000000002773
vertex 261.663949225617 -64.3724602499546 5.00000000002773
vertex 264.047728564582 -46.2658585321558 5.00000000002773
endloop
endfacet
facet normal -2.89438474698783e-006 -1.18521270070112e-005 0.999999999925575
outer loop
vertex 264.047728564582 -46.2658585321558 5.00000000002773
vertex 261.663949225617 -64.3724602499546 5.00000000002773
vertex 264.047728564587 -67.4790619677524 5.00000000002773
endloop
endfacet
facet normal -2.89438474698783e-006 -1.18521270070112e-005 0.999999999925575
outer loop
vertex 264.047728564582 -46.2658585321558 5.00000000002773
vertex 264.047728564587 -67.4790619677524 5.00000000002773
vertex 267.154330282379 -43.8820791931869 5.00000000002773
endloop
endfacet
facet normal -2.89438474698783e-006 -1.18521270070112e-005 0.999999999925575
outer loop
vertex 267.154330282379 -43.8820791931869 5.00000000002773
vertex 264.047728564587 -67.4790619677524 5.00000000002773
vertex 267.154330282386 -69.8628413067198 5.00000000002773
endloop
endfacet
facet normal -2.89438474698783e-006 -1.18521270070112e-005 0.999999999925575
outer loop
vertex 267.154330282379 -43.8820791931869 5.00000000002773
vertex 267.154330282386 -69.8628413067198 5.00000000002773
vertex 270.772044605842 -42.3835728556164 5.00000000002773
endloop
endfacet
facet normal -2.89438474698783e-006 -1.18521270070112e-005 0.999999999925575
outer loop
vertex 270.772044605842 -42.3835728556164 5.00000000002773
vertex 267.154330282386 -69.8628413067198 5.00000000002773
vertex 269.654330282385 -70.8983752126521 5.00000000002773
endloop
endfacet
facet normal -2.89438474698783e-006 -1.18521270070112e-005 0.999999999925575
outer loop
vertex 270.772044605842 -42.3835728556164 5.00000000002773
vertex 269.654330282385 -70.8983752126521 5.00000000002773
vertex 269.654330282388 -81.8724602499526 5.00000000002773
endloop
endfacet
facet normal -2.89438474698783e-006 -1.18521270070112e-005 0.999999999925575
outer loop
vertex 225.175914436674 -145.172460250097 4.99868439334864
vertex 201.275917551911 -96.8724602493234 4.99959776017546
vertex 201.27591755009 -145.172460250092 4.99916902553373
endloop
endfacet
facet normal -2.89438474698783e-006 -1.18521270070112e-005 0.999999999925575
outer loop
vertex 201.275917551911 -96.8724602493234 4.99959776017546
vertex 225.175914436674 -145.172460250097 4.99868439334864
vertex 201.2759175521 -91.8724602495203 4.99964214264354
endloop
endfacet
facet normal -2.89438474698783e-006 -1.18521270070112e-005 0.999999999925575
outer loop
vertex 201.2759175521 -91.8724602495203 4.99964214264354
vertex 225.175914436674 -145.172460250097 4.99868439334864
vertex 201.275917552477 -81.8724602499143 4.99973090757971
endloop
endfacet
facet normal -2.89438474698783e-006 -1.18521270070112e-005 0.999999999925575
outer loop
vertex 201.275917552477 -81.8724602499143 4.99973090757971
vertex 225.175914436674 -145.172460250097 4.99868439334864
vertex 214.975917553505 -91.8724602499129 4.99999999999996
endloop
endfacet
facet normal -2.89438474698783e-006 -1.18521270070112e-005 0.999999999925575
outer loop
vertex 214.975917553505 -91.8724602499129 4.99999999999996
vertex 225.175914436674 -145.172460250097 4.99868439334864
vertex 224.775917553505 -91.8724602499128 4.99999999999996
endloop
endfacet
facet normal -2.89438474698783e-006 -1.18521270070112e-005 0.999999999925575
outer loop
vertex 224.775917553505 -91.8724602499128 4.99999999999996
vertex 225.175914436674 -145.172460250097 4.99868439334864
vertex 224.775917553507 -81.872460249914 4.99999999999996
endloop
endfacet
facet normal -2.89438474698783e-006 -1.18521270070112e-005 0.999999999925575
outer loop
vertex 224.775917553507 -81.872460249914 4.99999999999996
vertex 225.175914436674 -145.172460250097 4.99868439334864
vertex 269.654330282388 -81.8724602499526 5.00000000002773
endloop
endfacet
facet normal -2.89438474698783e-006 -1.18521270070112e-005 0.999999999925575
outer loop
vertex 269.654330282388 -81.8724602499526 5.00000000002773
vertex 225.175914436674 -145.172460250097 4.99868439334864
vertex 228.075887709945 -145.372459523642 4.99782006311135
endloop
endfacet
facet normal -2.89438474698783e-006 -1.18521270070112e-005 0.999999999925575
outer loop
vertex 228.075887709945 -145.372459523642 4.99782006311135
vertex 225.175914436674 -145.172460250097 4.99868439334864
vertex 228.075887709945 -148.372459289202 4.99782006311135
endloop
endfacet
facet normal -2.89438474698783e-006 -1.18521270070112e-005 0.999999999925575
outer loop
vertex 269.654330282388 -81.8724602499526 5.00000000002773
vertex 228.075887709945 -145.372459523642 4.99782006311135
vertex 311.854330282674 -145.372459523659 4.99997799463191
endloop
endfacet
facet normal -2.89438474698783e-006 -1.18521270070112e-005 0.999999999925575
outer loop
vertex 269.654330282388 -81.8724602499526 5.00000000002773
vertex 311.854330282674 -145.372459523659 4.99997799463191
vertex 279.654330282388 -81.8724602499506 5.00000000002773
endloop
endfacet
facet normal -2.89438474698783e-006 -1.18521270070112e-005 0.999999999925575
outer loop
vertex 269.654330282388 -81.8724602499526 5.00000000002773
vertex 279.654330282388 -81.8724602499506 5.00000000002773
vertex 270.772044605842 -42.3835728556164 5.00000000002773
endloop
endfacet
facet normal -2.89438474698783e-006 -1.18521270070112e-005 0.999999999925575
outer loop
vertex 270.772044605842 -42.3835728556164 5.00000000002773
vertex 279.654330282388 -81.8724602499506 5.00000000002773
vertex 274.654330282379 -41.8724602499515 5.00000000002773
endloop
endfacet
facet normal -2.89438474698783e-006 -1.18521270070112e-005 0.999999999925575
outer loop
vertex 274.654330282379 -41.8724602499515 5.00000000002773
vertex 279.654330282388 -81.8724602499506 5.00000000002773
vertex 278.536615958917 -42.3835728556147 5.00000000002773
endloop
endfacet
facet normal -2.89438474698783e-006 -1.18521270070112e-005 0.999999999925575
outer loop
vertex 278.536615958917 -42.3835728556147 5.00000000002773
vertex 279.654330282388 -81.8724602499506 5.00000000002773
vertex 279.654330282385 -70.8983752126497 5.00000000002773
endloop
endfacet
facet normal -2.89438474698783e-006 -1.18521270070112e-005 0.999999999925575
outer loop
vertex 279.654330282388 -81.8724602499506 5.00000000002773
vertex 311.854330282674 -145.372459523659 4.99997799463191
vertex 311.85433028239 -81.8724602499632 5.00000000003823
endloop
endfacet
facet normal -2.89438474698783e-006 -1.18521270070112e-005 0.999999999925575
outer loop
vertex 279.654330282385 -70.8983752126497 5.00000000002773
vertex 282.15433028238 -43.8820791931834 5.00000000002773
vertex 278.536615958917 -42.3835728556147 5.00000000002773
endloop
endfacet
facet normal -2.89438474698783e-006 -1.18521270070112e-005 0.999999999925575
outer loop
vertex 282.15433028238 -43.8820791931834 5.00000000002773
vertex 279.654330282385 -70.8983752126497 5.00000000002773
vertex 282.154330282385 -69.8628413067167 5.00000000002773
endloop
endfacet
facet normal -2.89438474698783e-006 -1.18521270070112e-005 0.999999999925575
outer loop
vertex 282.15433028238 -43.8820791931834 5.00000000002773
vertex 282.154330282385 -69.8628413067167 5.00000000002773
vertex 285.260932000178 -46.265858532151 5.00000000002773
endloop
endfacet
facet normal -2.89438474698783e-006 -1.18521270070112e-005 0.999999999925575
outer loop
vertex 285.260932000178 -46.265858532151 5.00000000002773
vertex 282.154330282385 -69.8628413067167 5.00000000002773
vertex 285.260932000183 -67.4790619677474 5.00000000002773
endloop
endfacet
facet normal -2.89438474698783e-006 -1.18521270070112e-005 0.999999999925575
outer loop
vertex 285.260932000178 -46.265858532151 5.00000000002773
vertex 285.260932000183 -67.4790619677474 5.00000000002773
vertex 287.644711339147 -49.3724602499489 5.00000000002773
endloop
endfacet
facet normal -2.89438474698783e-006 -1.18521270070112e-005 0.999999999925575
outer loop
vertex 287.644711339147 -49.3724602499489 5.00000000002773
vertex 285.260932000183 -67.4790619677474 5.00000000002773
vertex 287.64471133915 -64.3724602499488 5.00000000002773
endloop
endfacet
facet normal -2.89438474698783e-006 -1.18521270070112e-005 0.999999999925575
outer loop
vertex 287.644711339147 -49.3724602499489 5.00000000002773
vertex 287.64471133915 -64.3724602499488 5.00000000002773
vertex 289.143217676718 -52.9901745734107 5.00000000002773
endloop
endfacet
facet normal -2.89438474698783e-006 -1.18521270070112e-005 0.999999999925575
outer loop
vertex 289.143217676718 -52.9901745734107 5.00000000002773
vertex 287.64471133915 -64.3724602499488 5.00000000002773
vertex 289.143217676719 -60.7547459264861 5.00000000002773
endloop
endfacet
facet normal -2.89438474698783e-006 -1.18521270070112e-005 0.999999999925575
outer loop
vertex 289.143217676718 -52.9901745734107 5.00000000002773
vertex 289.143217676719 -60.7547459264861 5.00000000002773
vertex 289.654330282382 -56.8724602499482 5.00000000002773
endloop
endfacet
facet normal -2.89438474698783e-006 -1.18521270070112e-005 0.999999999925575
outer loop
vertex 214.975917553505 -81.8724602499129 4.99999999999996
vertex 201.275917552477 -81.8724602499143 4.99973090757971
vertex 214.975917553505 -91.8724602499129 4.99999999999996
endloop
endfacet
facet normal -1.0 3.77040798597456e-011 -1.47168096795765e-023
outer loop
vertex 201.2759175521 -91.8724602495203 4.99964214264354
vertex 201.275917552477 -81.8724602499167 2.95322018956803e-012
vertex 201.2759175521 -91.8724602495218 5.87346366378766e-012
endloop
endfacet
facet normal -1.0 3.77040798597456e-011 -1.47168096795765e-023
outer loop
vertex 201.275917552477 -81.8724602499167 2.95322018956803e-012
vertex 201.2759175521 -91.8724602495203 4.99964214264354
vertex 201.275917552477 -81.8724602499143 4.99973090757971
endloop
endfacet
facet normal -1.0 3.77019912023587e-011 1.67329251208097e-016
outer loop
vertex 196.2759175521 -91.8724602493318 4.99964214264354
vertex 196.275917551911 -96.8724158702372 7.33467679503411e-012
vertex 196.275917551911 -96.8724602491348 4.99959776017546
endloop
endfacet
facet normal -1.0 3.77019912023587e-011 1.67329251208097e-016
outer loop
vertex 196.275917551911 -96.8724158702372 7.33467679503411e-012
vertex 196.2759175521 -91.8724602493318 4.99964214264354
vertex 196.2759175521 -91.8724602493333 5.8743003100437e-012
endloop
endfacet
facet normal 3.77019912023587e-011 1.0 -2.93297505919351e-013
outer loop
vertex 196.2759175521 -91.8724602493333 5.8743003100437e-012
vertex 201.2759175521 -91.8724602495203 4.99964214264354
vertex 201.2759175521 -91.8724602495218 5.87346366378766e-012
endloop
endfacet
facet normal 3.77019912023587e-011 1.0 -2.93297505919351e-013
outer loop
vertex 201.2759175521 -91.8724602495203 4.99964214264354
vertex 196.2759175521 -91.8724602493333 5.8743003100437e-012
vertex 196.2759175521 -91.8724602493318 4.99964214264354
endloop
endfacet
facet normal -3.77019912023587e-011 -0.999999999960604 -8.87649361827832e-006
outer loop
vertex 201.275917551911 -96.8724602493234 4.99959776017546
vertex 196.275917551911 -96.8724158702372 7.33467679503411e-012
vertex 201.275917551911 -96.8724158704257 7.33384014877807e-012
endloop
endfacet
facet normal -3.77019912023587e-011 -0.999999999960604 -8.87649361827832e-006
outer loop
vertex 196.275917551911 -96.8724158702372 7.33467679503411e-012
vertex 201.275917551911 -96.8724602493234 4.99959776017546
vertex 196.275917551911 -96.8724602491348 4.99959776017546
endloop
endfacet
endsolid TronXY_X1_Control_Box_and_base_V2
